<?xml version="1.0" standalone="no"?>
<!DOCTYPE svg PUBLIC "-//W3C//DTD SVG 1.1//EN" "http://www.w3.org/Graphics/SVG/1.1/DTD/svg11.dtd" >
<svg xmlns="http://www.w3.org/2000/svg" xmlns:xlink="http://www.w3.org/1999/xlink" version="1.1">
<metadata>
Created by FontForge 20170104 at Thu Nov 12 17:02:51 2015
 By myTaste
Copyright (c) 2015 by Mathieu Desjardins. All rights reserved.
</metadata>
<defs>
<font id="Stellar-Bold" horiz-adv-x="487" >
  <font-face 
    font-family="Stellar"
    font-weight="700"
    font-stretch="normal"
    units-per-em="1000"
    panose-1="2 0 5 6 4 0 0 2 0 4"
    ascent="750"
    descent="-250"
    x-height="549"
    cap-height="700"
    bbox="-148 -255 910 997"
    underline-thickness="50"
    underline-position="-100"
    stemh="50"
    stemv="60"
    unicode-range="U+000D-FB02"
  />
<missing-glyph horiz-adv-x="228" 
 />
    <glyph glyph-name=".notdef" horiz-adv-x="228" 
 />
    <glyph glyph-name="NULL" horiz-adv-x="0" 
 />
    <glyph glyph-name="NULL" horiz-adv-x="0" 
 />
    <glyph glyph-name="CR" unicode="&#xd;" horiz-adv-x="228" 
 />
    <glyph glyph-name="space" unicode=" " horiz-adv-x="228" 
 />
    <glyph glyph-name="F" unicode="F" horiz-adv-x="452" 
d="M25 0v700h357v-141h-218v-179h180v-141h-180v-239h-139z" />
    <glyph glyph-name="H" unicode="H" horiz-adv-x="516" 
d="M30 0v700h139v-315h128v315h139v-700h-139v245h-128v-245h-139z" />
    <glyph glyph-name="T" unicode="T" horiz-adv-x="447" 
d="M-10 559v141h397v-141h-129v-559h-139v559h-129z" />
    <glyph glyph-name="U" unicode="U" horiz-adv-x="555" 
d="M30 700h139v-486c0 -53 21 -78 77 -78c57 0 80 25 80 78v486h139v-486c0 -154 -86 -219 -219 -219s-216 65 -216 219v486z" />
    <glyph glyph-name="I" unicode="I" horiz-adv-x="244" 
d="M25 0v700h139v-700h-139z" />
    <glyph glyph-name="Q" unicode="Q" horiz-adv-x="594" 
d="M10 350c0 195 26 355 233 355c208 0 235 -160 235 -355c0 -100 -9 -192 -48 -258c13 -9 46 -36 89 -36v-140c-109 0 -170 51 -198 90c-23 -8 -49 -11 -78 -11c-207 0 -233 160 -233 355zM148 350c0 -130 9 -214 94 -214c87 0 97 84 97 214c0 129 -10 214 -97 214
c-85 0 -94 -85 -94 -214z" />
    <glyph glyph-name="P" unicode="P" horiz-adv-x="509" 
d="M30 0v700h173c204 0 236 -139 236 -247s-32 -246 -236 -246h-34v-207h-139zM169 559v-211h33c85 3 98 47 98 105c0 59 -13 106 -97 106h-34z" />
    <glyph glyph-name="R" unicode="R" horiz-adv-x="522" 
d="M30 0v700h173c204 0 236 -139 236 -247c0 -74 -18 -164 -97 -212l130 -241h-156l-114 207h-33v-207h-139zM169 559v-211h33c86 3 98 47 98 105c0 59 -12 106 -97 106h-34z" />
    <glyph glyph-name="M" unicode="M" horiz-adv-x="677" 
d="M20 0v700h135l148 -446l149 446h135v-700h-138v279l-91 -279h-111l-88 272v-272h-139z" />
    <glyph glyph-name="V" unicode="V" horiz-adv-x="517" 
d="M223 280l103 420h141l-179 -700h-129l-179 700h141z" />
    <glyph glyph-name="L" unicode="L" horiz-adv-x="425" 
d="M20 0v700h138v-556h207v-144h-345z" />
    <glyph glyph-name="N" unicode="N" horiz-adv-x="564" 
d="M30 0v700h123l183 -370v370h138v-700h-122l-184 369v-369h-138z" />
    <glyph glyph-name="C" unicode="C" horiz-adv-x="552" 
d="M472 232v-37c0 -148 -101 -200 -209 -200c-206 0 -233 161 -233 355s27 355 233 355c108 0 209 -53 209 -200v-37h-136v37c0 42 -28 59 -73 59c-85 0 -95 -85 -95 -214s10 -214 95 -214c44 0 72 19 72 59v37h137z" />
    <glyph glyph-name="G" unicode="G" horiz-adv-x="531" 
d="M250 258v110h211v-136c0 -185 -111 -237 -219 -237c-206 0 -232 161 -232 355s26 355 232 355c113 0 210 -60 210 -201v-37h-137v37c0 45 -34 60 -73 60c-84 0 -94 -85 -94 -214s10 -214 94 -214c46 0 80 32 80 96v26h-72z" />
    <glyph glyph-name="K" unicode="K" horiz-adv-x="543" 
d="M30 0v700h139v-234c51 78 105 160 155 234h169l-233 -348l229 -352h-167l-153 235v-235h-139z" />
    <glyph glyph-name="J" unicode="J" horiz-adv-x="332" 
d="M-10 55l50 100c21 -21 47 -25 64 -20c13 4 30 12 30 60v505h138v-505c0 -155 -82 -200 -155 -200c-43 0 -93 28 -127 60z" />
    <glyph glyph-name="Y" unicode="Y" horiz-adv-x="541" 
d="M174 0v236l-184 464h146l108 -280c24 62 55 149 109 280h143l-183 -464v-236h-139z" />
    <glyph glyph-name="Z" unicode="Z" horiz-adv-x="520" 
d="M25 559v141h415v-104l-238 -455h238v-141h-415v105l238 454h-238z" />
    <glyph glyph-name="S" unicode="S" horiz-adv-x="534" 
d="M20 208v36l138 -10v-26c0 -39 25 -72 96 -72c63 0 71 37 71 56c0 43 -51 63 -105 84c-92 36 -191 74 -191 224c0 57 32 205 216 205c180 0 210 -153 210 -209v-36l-139 10v26c0 38 -22 68 -71 68c-47 0 -78 -26 -78 -64c0 -47 54 -69 107 -89c90 -33 190 -78 190 -219
c0 -93 -47 -197 -210 -197c-230 0 -234 182 -234 213z" />
    <glyph glyph-name="E" unicode="E" horiz-adv-x="467" 
d="M30 0v700h351v-141h-212v-146h177v-141h-177v-131h218v-141h-357z" />
    <glyph glyph-name="X" unicode="X" horiz-adv-x="559" 
d="M3 0l177 341l-180 358h155l107 -219l107 219h155l-181 -349c55 -107 123 -244 177 -350h-155l-103 210c-21 -42 -54 -118 -104 -210h-155z" />
    <glyph glyph-name="W" unicode="W" horiz-adv-x="821" 
d="M145 700l82 -386l83 386h135l83 -383l84 383h139l-154 -700h-137l-83 383l-82 -383h-136l-154 700h140z" />
    <glyph glyph-name="B" unicode="B" horiz-adv-x="520" 
d="M20 0v700h205c161 0 200 -116 200 -210c0 -40 -10 -82 -34 -120c48 -41 69 -105 69 -158c0 -95 -31 -212 -235 -212h-205zM159 284v-143h65c85 2 97 33 97 71s-19 72 -105 72h-57zM159 559v-135h57c60 0 71 40 71 66c0 27 -5 69 -62 69h-66z" />
    <glyph glyph-name="O" unicode="O" horiz-adv-x="578" 
d="M168 350c0 -130 9 -214 94 -214c87 0 97 84 97 214c0 129 -10 214 -97 214c-85 0 -94 -85 -94 -214zM30 350c0 195 25 355 232 355c208 0 236 -160 236 -355s-28 -355 -236 -355c-207 0 -232 160 -232 355z" />
    <glyph glyph-name="b" unicode="b" horiz-adv-x="509" 
d="M38 715h129v-204c16 25 46 41 80 44c177 17 192 -191 192 -280s-16 -293 -192 -280c-30 2 -60 16 -80 44v-39h-137l8 106v609zM165 275c0 -37 -3 -147 69 -147c70 0 72 106 72 147c0 34 -2 147 -72 147c-72 0 -69 -110 -69 -147z" />
    <glyph glyph-name="d" unicode="d" horiz-adv-x="514" 
d="M292 715h129v-609l8 -106h-137v39c-20 -28 -50 -42 -80 -44c-176 -13 -192 191 -192 280s15 297 192 280c34 -3 64 -19 80 -44v204zM294 275c0 37 3 147 -69 147c-70 0 -72 -113 -72 -147c0 -41 2 -147 72 -147c72 0 69 110 69 147z" />
    <glyph glyph-name="q" unicode="q" horiz-adv-x="539" 
d="M431 -165h-129v204c-16 -25 -46 -41 -80 -44c-177 -17 -192 191 -192 280s16 293 192 280c30 -2 60 -16 80 -44v39h137l-8 -106v-609zM304 275c0 37 3 147 -69 147c-70 0 -72 -106 -72 -147c0 -34 2 -147 72 -147c72 0 69 110 69 147z" />
    <glyph glyph-name="p" unicode="p" horiz-adv-x="499" 
d="M157 -165h-129v609l-8 106h137v-39c20 28 50 42 80 44c176 13 192 -191 192 -280s-15 -297 -192 -280c-34 3 -64 19 -80 44v-204zM155 275c0 -37 -3 -147 69 -147c70 0 72 113 72 147c0 41 -2 147 -72 147c-72 0 -69 -110 -69 -147z" />
    <glyph glyph-name="o" unicode="o" horiz-adv-x="492" 
d="M290 275c0 37 4 147 -69 147c-74 0 -72 -110 -72 -147s-2 -147 72 -147c73 0 69 110 69 147zM422 275c0 -79 0 -280 -201 -280s-201 201 -201 280s0 280 201 280s201 -201 201 -280z" />
    <glyph glyph-name="n" unicode="n" horiz-adv-x="510" 
d="M38 0v431l-8 119h122v-58c25 37 67 60 104 63c138 12 184 -77 184 -247v-308h-130v301c0 82 -11 121 -64 121c-44 0 -78 -25 -78 -121v-301h-130z" />
    <glyph glyph-name="m" unicode="m" horiz-adv-x="775" 
d="M39 0v432l-9 118h126v-57c20 41 63 59 96 62c71 6 123 -15 149 -64c27 36 69 61 114 64c139 9 180 -77 180 -247v-308h-130v301c0 82 -8 121 -60 121c-42 0 -71 -24 -73 -112v-310h-130v317c-1 70 -11 105 -60 105c-44 0 -74 -25 -74 -121v-301h-129z" />
    <glyph glyph-name="c" unicode="c" horiz-adv-x="500" 
d="M311 206h119c0 -133 -84 -211 -191 -211c-156 0 -209 137 -209 280s53 280 209 280c118 0 191 -93 191 -211h-118c0 65 -38 78 -73 78c-58 0 -78 -53 -78 -147s20 -147 78 -147c35 0 72 18 72 78z" />
    <glyph glyph-name="u" unicode="u" horiz-adv-x="495" 
d="M422 549v-431l8 -119h-122v58c-25 -37 -67 -60 -104 -63c-138 -12 -184 77 -184 247v308h130v-301c0 -82 11 -121 64 -121c44 0 78 25 78 121v301h130z" />
    <glyph glyph-name="r" unicode="r" horiz-adv-x="369" 
d="M38 0v431l-8 119h126v-66c24 59 61 71 92 71c39 0 69 -17 111 -50l-83 -111c-15 17 -26 26 -43 28c-43 5 -66 -25 -66 -121v-301h-129z" />
    <glyph glyph-name="A" unicode="A" horiz-adv-x="588" 
d="M0 0l200 700h129l199 -700h-143l-33 121h-176l-32 -121h-144zM264 432l-49 -170h99c-5 14 -9 27 -50 170z" />
    <glyph glyph-name="D" unicode="D" horiz-adv-x="543" 
d="M169 559v-419h67c85 2 98 81 98 210c0 128 -13 209 -97 209h-68zM30 0v700h207c204 0 236 -156 236 -350s-32 -350 -236 -350h-207z" />
    <glyph glyph-name="t" unicode="t" horiz-adv-x="374" 
d="M207 649v-99h97v-132h-97v-238c0 -34 15 -46 34 -48c24 -3 38 9 44 16l18 -103c-48 -47 -89 -50 -118 -50c-81 0 -108 64 -108 141v282h-67v132h67v99h130z" />
    <glyph glyph-name="h" unicode="h" horiz-adv-x="512" 
d="M40 0v715h131v-214c25 40 61 52 87 54c139 9 184 -77 184 -247v-308h-131v301c0 82 -10 121 -63 121c-43 0 -77 -25 -77 -121v-301h-131z" />
    <glyph glyph-name="l" unicode="l" horiz-adv-x="305" 
d="M30 176v539h130v-547c0 -17 2 -30 12 -33c7 -2 14 0 20 7l63 -87c-58 -60 -101 -60 -117 -60c-108 0 -108 67 -108 181z" />
    <glyph glyph-name="a" unicode="a" horiz-adv-x="486" 
d="M407 350v-246l9 -104h-135v48c-12 -25 -39 -50 -85 -53c-146 -10 -166 99 -166 181c0 92 46 192 175 188c29 -1 57 -10 72 -27c0 72 -34 88 -67 91s-58 -5 -93 -40l-67 47c38 89 98 120 166 120c69 0 191 -31 191 -205zM225 231c-40 0 -65 -25 -65 -55
c0 -25 13 -48 56 -48c23 0 49 11 62 30v47c-6 16 -30 26 -53 26z" />
    <glyph glyph-name="j" unicode="j" horiz-adv-x="311" 
d="M206 -6v556h-131v-556c0 -33 2 -87 -61 -34l-74 -95c47 -50 95 -76 132 -76c134 0 134 108 134 205zM211 701c0 -43 -31 -76 -70 -76c-43 0 -74 33 -74 76c0 44 31 76 74 76c39 0 70 -32 70 -76z" />
    <glyph glyph-name="i" unicode="i" horiz-adv-x="254" 
d="M37 0h131v550h-131v-550zM174 701c0 -43 -31 -76 -70 -76c-43 0 -74 33 -74 76c0 44 31 76 74 76c39 0 70 -32 70 -76z" />
    <glyph glyph-name="g" unicode="g" horiz-adv-x="539" 
d="M431 443v-420c0 -149 -101 -211 -203 -207c-76 3 -139 51 -177 109l85 59c24 -33 75 -37 92 -35c34 4 74 14 74 89c-19 -25 -46 -42 -80 -44c-185 -11 -192 201 -192 280s5 286 192 280c30 -1 60 -16 80 -44v39h137zM304 274c0 37 3 147 -69 147c-70 0 -72 -106 -72 -147
c0 -34 2 -147 72 -147c72 0 69 110 69 147z" />
    <glyph glyph-name="f" unicode="f" horiz-adv-x="384" 
d="M349 638l-55 -55c-10 14 -20 27 -43 24s-36 -26 -37 -57h101v-132h-101v-418h-130v418h-64v132h64c5 122 67 170 142 170c54 0 101 -35 123 -82z" />
    <glyph glyph-name="z" unicode="z" horiz-adv-x="473" 
d="M20 418v132h383v-100l-204 -318h204v-132h-383v100l205 318h-205z" />
    <glyph glyph-name="v" unicode="v" horiz-adv-x="447" 
d="M417 550l-157 -550h-115l-160 550h137l80 -320c42 145 63 264 79 320h136z" />
    <glyph glyph-name="w" unicode="w" horiz-adv-x="665" 
d="M625 550l-138 -550h-116l-63 272c-28 -107 -49 -208 -65 -272h-114l-139 550h134l62 -277l63 277h118l63 -279c21 87 42 198 62 279h133z" />
    <glyph glyph-name="k" unicode="k" horiz-adv-x="501" 
d="M160 0h-130v715h130v-311c44 48 90 100 133 146h177l-206 -227l207 -323h-158l-140 221l-13 -14v-207z" />
    <glyph glyph-name="x" unicode="x" horiz-adv-x="535" 
d="M294 278l171 -278h-153l-96 174l-93 -174h-153l171 275l-170 275h152l94 -174c52 85 78 146 96 174h151z" />
    <glyph glyph-name="y" unicode="y" horiz-adv-x="490" 
d="M430 550l-170 -574c-28 -88 -78 -113 -119 -113c-38 0 -88 47 -102 71l46 86c17 -18 28 -29 48 -24c25 6 26 28 18 59l-151 495h133l82 -309l78 309h137z" />
    <glyph glyph-name="e" unicode="e" horiz-adv-x="501" 
d="M302 206h129c0 -137 -69 -211 -199 -211c-163 0 -202 125 -202 280c0 161 50 280 202 280s199 -123 199 -246v-46h-270c0 -91 17 -135 71 -135c49 0 70 22 70 78zM232 422c-49 0 -64 -35 -69 -76h136c0 45 -18 76 -67 76z" />
    <glyph glyph-name="s" unicode="s" horiz-adv-x="452" 
d="M10 186l130 -10c0 -28 28 -48 64 -48c41 0 47 26 47 38c0 24 -21 44 -75 57c-73 18 -159 47 -159 165c0 47 25 167 172 167c143 0 187 -117 187 -188l-130 10c0 29 -23 45 -57 45c-27 0 -42 -17 -42 -36c0 -24 15 -42 77 -59c70 -19 158 -59 158 -163
c0 -73 -47 -169 -178 -169c-179 0 -194 160 -194 191z" />
    <glyph glyph-name="period" unicode="." horiz-adv-x="285" 
d="M215 87c0 -52 -37 -92 -86 -92c-52 0 -89 40 -89 92c0 54 37 93 89 93c49 0 86 -39 86 -93z" />
    <glyph glyph-name="comma" unicode="," horiz-adv-x="282" 
d="M10 -106v79c11 4 60 26 60 53c-24 -6 -52 31 -52 61c0 53 37 93 87 93c40 0 68 -26 82 -61c23 -57 -36 -177 -177 -225z" />
    <glyph glyph-name="semicolon" unicode=";" horiz-adv-x="273" 
d="M203 353c0 -52 -36 -92 -87 -92c-49 0 -87 40 -87 92c0 53 38 92 87 92c51 0 87 -39 87 -92zM20 -106v79c11 4 60 26 60 53c-24 -6 -52 31 -52 61c0 53 37 93 87 93c40 0 68 -26 82 -61c23 -57 -36 -177 -177 -225z" />
    <glyph glyph-name="colon" unicode=":" horiz-adv-x="264" 
d="M194 353c0 -52 -36 -92 -87 -92c-49 0 -87 40 -87 92c0 53 38 92 87 92c51 0 87 -39 87 -92zM194 87c0 -52 -36 -92 -87 -92c-49 0 -87 40 -87 92c0 53 38 92 87 92c51 0 87 -39 87 -92z" />
    <glyph glyph-name="question" unicode="?" horiz-adv-x="544" 
d="M268 223h-137c0 224 176 152 176 268c0 34 -16 73 -62 73c-40 0 -67 -23 -67 -58v-26h-138v26c0 67 46 199 205 199c161 0 199 -138 199 -214c0 -58 -29 -116 -76 -150s-100 -43 -100 -118zM277 78c0 -47 -33 -83 -77 -83c-45 0 -78 36 -78 83s33 82 78 82
c44 0 77 -35 77 -82z" />
    <glyph glyph-name="hyphen" unicode="-" horiz-adv-x="540" 
d="M60 241v141h380v-141h-380z" />
    <glyph glyph-name="equal" unicode="=" horiz-adv-x="506" 
d="M60 311v140h346v-140h-346zM60 113v141h346v-141h-346z" />
    <glyph glyph-name="plus" unicode="+" horiz-adv-x="507" 
d="M164 489h139v-107h104v-141h-104v-108h-139v108h-104v141h104v107z" />
    <glyph glyph-name="endash" unicode="&#x2013;" horiz-adv-x="525" 
d="M37 241v141h380v-141h-380z" />
    <glyph glyph-name="emdash" unicode="&#x2014;" horiz-adv-x="779" 
d="M48 241v141h604v-141h-604z" />
    <glyph glyph-name="exclam" unicode="!" horiz-adv-x="280" 
d="M34 232v468h138v-468h-138zM180 78c0 -47 -33 -83 -78 -83c-44 0 -77 36 -77 83s33 82 77 82c45 0 78 -35 78 -82z" />
    <glyph glyph-name="dollar" unicode="$" horiz-adv-x="595" 
d="M326 -89h-125v90c-173 27 -170 178 -170 207v36l138 -10v-26c0 -39 25 -72 96 -72c63 0 71 37 71 56c0 43 -51 63 -105 84c-92 36 -191 74 -191 224c0 51 19 176 161 200v87h125v-92c117 -35 140 -151 140 -199v-36l-139 10v26c0 38 -22 68 -71 68c-47 0 -78 -26 -78 -64
c0 -47 54 -69 107 -89c90 -33 190 -78 190 -219c0 -77 -45 -163 -149 -190v-91z" />
    <glyph glyph-name="nine" unicode="9" horiz-adv-x="500" 
d="M430 483c0 -37 -7 -78 -21 -111l-167 -372h-152l119 263c-140 12 -179 126 -179 220c0 99 45 222 202 222c159 0 198 -123 198 -222zM291 483c0 26 -4 81 -59 81c-56 0 -63 -55 -63 -81s7 -80 63 -80c55 0 59 54 59 80z" />
    <glyph glyph-name="eight" unicode="8" horiz-adv-x="539" 
d="M433 501c0 -31 -2 -81 -37 -127c50 -55 53 -130 53 -157c0 -45 -14 -222 -209 -222c-194 0 -210 177 -210 222c0 27 4 102 54 157c-28 44 -36 99 -36 127c0 54 27 204 192 204c166 0 193 -150 193 -204zM302 217c0 13 0 80 -62 80c-61 0 -61 -65 -61 -80
c0 -16 0 -81 61 -81s62 65 62 81zM294 501c0 24 -9 63 -54 63s-53 -39 -53 -63c0 -25 8 -64 53 -64s54 39 54 64z" />
    <glyph glyph-name="seven" unicode="7" 
d="M30 559v141h397v-101l-221 -599h-146l208 559h-238z" />
    <glyph glyph-name="six" unicode="6" horiz-adv-x="510" 
d="M10 217c0 36 6 76 22 111v-1c26 59 54 119 80 178c27 61 60 136 87 195h151l-119 -263c140 -12 179 -126 179 -220c0 -100 -44 -222 -200 -222c-159 0 -200 122 -200 222zM149 217c0 -26 5 -81 61 -81c55 0 61 55 61 81c0 25 -6 80 -61 80c-54 0 -61 -55 -61 -80z" />
    <glyph glyph-name="four" unicode="4" horiz-adv-x="516" 
d="M257 341h138v-68h51v-141h-51v-132h-138v132h-227v141l241 427h154l-240 -427h72v68z" />
    <glyph glyph-name="three" unicode="3" horiz-adv-x="469" 
d="M10 214h138c0 -52 19 -78 64 -78c42 0 67 33 67 70c0 31 -14 82 -50 82h-41v129h41c36 0 50 48 50 78c0 37 -26 69 -67 69c-44 0 -65 -21 -65 -78h-137c0 143 86 219 202 219c115 0 202 -86 202 -210c0 -90 -49 -144 -83 -144c34 0 83 -42 83 -145
c0 -140 -87 -211 -202 -211c-116 0 -202 73 -202 219z" />
    <glyph glyph-name="zero" unicode="0" 
d="M158 350c0 -119 0 -214 59 -214c60 0 61 95 61 214s0 214 -61 214c-59 0 -59 -95 -59 -214zM20 350c0 165 0 355 197 355c200 0 200 -190 200 -355s0 -355 -200 -355c-197 0 -197 190 -197 355z" />
    <glyph glyph-name="one" unicode="1" horiz-adv-x="354" 
d="M30 441v183l105 76h109v-700h-138v494c-25 -19 -62 -42 -76 -53z" />
    <glyph glyph-name="five" unicode="5" horiz-adv-x="529" 
d="M55 201h138c0 -43 30 -65 66 -65c50 0 71 40 71 107c0 61 -22 105 -71 105c-45 0 -66 -27 -66 -57h-138v409h339v-141h-201v-118c18 30 45 42 77 46c119 14 189 -90 189 -244c0 -187 -82 -248 -199 -248c-109 0 -205 67 -205 206z" />
    <glyph glyph-name="parenleft" unicode="(" horiz-adv-x="412" 
d="M282 76v-123c-242 0 -242 235 -242 397s0 397 242 397v-123c-104 0 -104 -135 -104 -274c0 -140 0 -274 104 -274z" />
    <glyph glyph-name="parenright" unicode=")" horiz-adv-x="421" 
d="M80 -47v123c103 0 103 134 103 274c0 139 0 274 -103 274v123c241 0 241 -235 241 -397s0 -397 -241 -397z" />
    <glyph glyph-name="bar" unicode="|" horiz-adv-x="236" 
d="M161 -86h-126v914h126v-914z" />
    <glyph glyph-name="quotesinglbase" unicode="&#x201a;" horiz-adv-x="304" 
d="M40 461v79c11 4 60 26 60 53c-24 -6 -52 31 -52 61c0 53 37 93 87 93c40 0 68 -26 82 -61c23 -57 -36 -177 -177 -225z" />
    <glyph glyph-name="quoteright" unicode="&#x2019;" horiz-adv-x="270" 
d="M47 461v79c11 4 60 26 60 53c-24 -6 -52 31 -52 61c0 53 37 93 87 93c40 0 68 -26 82 -61c23 -57 -36 -177 -177 -225z" />
    <glyph glyph-name="quoteleft" unicode="&#x2018;" horiz-adv-x="268" 
d="M212 760v-79c-11 -4 -60 -26 -60 -53c24 6 52 -31 52 -61c0 -53 -37 -93 -87 -93c-40 0 -68 26 -82 61c-23 57 36 177 177 225z" />
    <glyph glyph-name="_0129" horiz-adv-x="0" 
 />
    <glyph glyph-name="quotedblleft" unicode="&#x201c;" horiz-adv-x="550" 
d="M252 760v-79c-11 -4 -60 -26 -60 -53c24 6 52 -31 52 -61c0 -53 -37 -93 -87 -93c-40 0 -68 26 -82 61c-23 57 36 177 177 225zM478 760v-79c-11 -4 -60 -26 -60 -53c24 6 52 -31 52 -61c0 -53 -37 -93 -87 -93c-40 0 -68 26 -82 61c-23 57 36 177 177 225z" />
    <glyph glyph-name="quotedblright" unicode="&#x201d;" horiz-adv-x="558" 
d="M283 461v79c11 4 60 26 60 53c-24 -6 -52 31 -52 61c0 53 37 93 87 93c40 0 68 -26 82 -61c23 -57 -36 -177 -177 -225zM57 461v79c11 4 60 26 60 53c-24 -6 -52 31 -52 61c0 53 37 93 87 93c40 0 68 -26 82 -61c23 -57 -36 -177 -177 -225z" />
    <glyph glyph-name="quotedblbase" unicode="&#x201e;" horiz-adv-x="514" 
d="M271 461v79c11 4 60 26 60 53c-24 -6 -52 31 -52 61c0 53 37 93 87 93c40 0 68 -26 82 -61c23 -57 -36 -177 -177 -225zM45 461v79c11 4 60 26 60 53c-24 -6 -52 31 -52 61c0 53 37 93 87 93c40 0 68 -26 82 -61c23 -57 -36 -177 -177 -225z" />
    <glyph glyph-name="quotesingle" unicode="'" horiz-adv-x="282" 
d="M60 461v79c11 4 60 26 60 53c-24 -6 -52 31 -52 61c0 53 37 93 87 93c40 0 68 -26 82 -61c23 -57 -36 -177 -177 -225z" />
    <glyph glyph-name="_0020" horiz-adv-x="0" 
 />
    <glyph glyph-name="quotedbl" unicode="&#x22;" horiz-adv-x="508" 
d="M286 461v79c11 4 60 26 60 53c-24 -6 -52 31 -52 61c0 53 37 93 87 93c40 0 68 -26 82 -61c23 -57 -36 -177 -177 -225zM60 461v79c11 4 60 26 60 53c-24 -6 -52 31 -52 61c0 53 37 93 87 93c40 0 68 -26 82 -61c23 -57 -36 -177 -177 -225z" />
    <glyph glyph-name="two" unicode="2" horiz-adv-x="517" 
d="M427 141v-141h-397v92c0 87 63 144 131 206c61 55 127 117 127 191c0 26 -3 75 -60 75c-43 0 -60 -33 -60 -83h-138c0 117 47 224 198 224c168 0 199 -142 199 -216c0 -183 -226 -307 -226 -348h226z" />
    <glyph glyph-name="yen" unicode="&#xa5;" horiz-adv-x="477" 
d="M311 316l-37 -43v-273h-139v273l-37 43l-145 384h144l108 -276l107 276h143zM38 242v120h336v-120h-336zM38 91v121h336v-121h-336z" />
    <glyph glyph-name="degree" unicode="&#xb0;" horiz-adv-x="431" 
d="M206 570c0 19 -7 37 -29 37c-24 0 -33 -18 -33 -37c0 -21 9 -38 33 -38c22 0 29 17 29 38zM341 570c0 -73 -43 -174 -164 -174c-120 0 -167 101 -167 174c0 72 47 173 167 173c121 0 164 -101 164 -173z" />
    <glyph glyph-name="ordmasculine" unicode="&#xba;" horiz-adv-x="444" 
d="M218 570c0 19 -7 37 -29 37c-24 0 -33 -18 -33 -37c0 -21 9 -38 33 -38c22 0 29 17 29 38zM353 570c0 -73 -43 -174 -164 -174c-120 0 -167 101 -167 174c0 72 47 173 167 173c121 0 164 -101 164 -173z" />
    <glyph glyph-name="bullet" unicode="&#x2022;" horiz-adv-x="434" 
d="M304 305c0 -50 -30 -122 -114 -122c-82 0 -114 72 -114 122c0 51 32 121 114 121c84 0 114 -70 114 -121z" />
    <glyph glyph-name="slash" unicode="/" horiz-adv-x="504" 
d="M-20 -43l318 786h146l-316 -786h-148z" />
    <glyph glyph-name="backslash" unicode="\" horiz-adv-x="562" 
d="M146 743l316 -786h-147l-315 786h146z" />
    <glyph glyph-name="percent" unicode="%" horiz-adv-x="918" 
d="M189 -43l318 786h146l-317 -786h-147zM236 570c0 19 -7 47 -29 47c-24 0 -33 -28 -33 -47c0 -21 9 -48 33 -48c22 0 29 27 29 48zM371 570c0 -73 -44 -174 -164 -174c-119 0 -167 101 -167 174c0 72 48 173 167 173c120 0 164 -101 164 -173zM684 169c0 20 -6 48 -30 48
c-23 0 -31 -28 -31 -48s8 -48 31 -48c24 0 30 28 30 48zM818 169c0 -72 -43 -174 -164 -174c-119 0 -166 102 -166 174c0 73 47 174 166 174c121 0 164 -101 164 -174z" />
    <glyph glyph-name="fraction" unicode="&#x2044;" horiz-adv-x="442" 
d="M-30 -43l318 786h146l-316 -786h-148z" />
    <glyph glyph-name="numbersign" unicode="#" horiz-adv-x="990" 
d="M418 0l70 171h-109l-69 -171h-147l69 171h-132v131h187c16 35 18 55 34 96h-118v131h172l71 171h144l-69 -171h111l71 171h143l-67 -171h131v-131h-187l-32 -96h115v-131h-170l-69 -171h-149zM473 398l-43 -96h111l43 96h-111z" />
    <glyph glyph-name="bracketleft" unicode="[" horiz-adv-x="387" 
d="M40 -43v786h217v-141h-79v-504h79v-141h-217z" />
    <glyph glyph-name="bracketright" unicode="]" horiz-adv-x="397" 
d="M158 98v504h-78v141h217v-786h-217v141h78z" />
    <glyph glyph-name="Euro" unicode="&#x20ac;" horiz-adv-x="539" 
d="M30 364v120h43c9 120 58 221 214 221c53 0 93 -23 132 -56l-42 -96c-19 16 -53 27 -90 21c-49 -8 -69 -42 -75 -90h154v-120h-154v-30h154v-121h-151c2 -34 13 -87 72 -87c41 0 66 10 88 23l44 -97c-35 -29 -66 -57 -132 -57c-159 0 -192 102 -208 218h-49v121h44v30h-44
z" />
    <glyph glyph-name="onequarter" unicode="&#xbc;" horiz-adv-x="821" 
d="M185 -43l317 786h110l-315 -786h-112zM137 571v91l52 38h55v-349h-69v246c-13 -9 -31 -21 -38 -26zM604 170h68v-34h26v-70h-26v-66h-68v66h-113v70l120 213h76l-119 -213h36v34z" />
    <glyph glyph-name="onehalf" unicode="&#xbd;" horiz-adv-x="845" 
d="M155 -43l318 786h110l-316 -786h-112zM118 570v92l52 38h55v-351h-69v248c-13 -10 -31 -21 -38 -27zM694 71v-71h-198v46c0 44 31 72 65 103c31 28 64 59 64 96c0 13 -2 37 -30 37c-22 0 -30 -16 -30 -41h-69c0 58 23 112 99 112c84 0 99 -71 99 -108
c0 -92 -113 -154 -113 -174h113z" />
    <glyph glyph-name="minus" unicode="&#x2212;" horiz-adv-x="462" 
d="M-13 241v141h380v-141h-380z" />
    <glyph glyph-name="plusminus" unicode="&#xb1;" horiz-adv-x="408" 
d="M107 672h139v-107h105v-141h-105v-108h-139v108h-103v141h103v107zM4 118v141h347v-141h-347z" />
    <glyph glyph-name="cent" unicode="&#xa2;" horiz-adv-x="490" 
d="M289 -99h-126v105c-104 36 -152 149 -152 280c0 140 27 254 152 282v102h126v-105c78 -27 131 -109 131 -238h-132c0 81 -26 110 -61 111c-60 1 -81 -48 -81 -152s21 -155 81 -155c35 0 60 37 60 113h133c0 -136 -53 -215 -131 -238v-105z" />
    <glyph glyph-name="ampersand" unicode="&#x26;" horiz-adv-x="665" 
d="M575 0h-165l-32 47c-28 -24 -71 -48 -124 -52c-122 -8 -208 78 -213 199c-3 97 42 170 106 217c-23 40 -37 68 -37 112c0 121 88 182 174 182s171 -63 171 -173c0 -88 -59 -136 -114 -172c19 -28 30 -45 52 -78c38 32 84 46 136 46v-146c-34 0 -53 -9 -63 -19zM246 136
c27 3 46 15 59 29l-80 124c-28 -21 -49 -48 -47 -90c1 -33 25 -67 68 -63zM248 523c0 -12 6 -27 15 -43c24 15 53 30 53 52c0 19 -15 32 -32 32c-18 0 -36 -18 -36 -41z" />
    <glyph glyph-name="twosuperior" unicode="&#xb2;" horiz-adv-x="265" 
d="M211 474v-70h-197v46c0 43 31 71 65 102c30 28 63 59 63 95c0 13 -1 38 -30 38c-21 0 -29 -17 -29 -42h-69c0 59 23 112 98 112c84 0 99 -71 99 -108c0 -91 -112 -152 -112 -173h112z" />
    <glyph glyph-name="threesuperior" unicode="&#xb3;" horiz-adv-x="269" 
d="M19 509h69c0 -27 10 -40 33 -40c21 0 33 17 33 36c0 15 -7 41 -25 41h-20v65h20c18 0 25 24 25 39c0 18 -13 35 -33 35c-23 0 -33 -11 -33 -40h-69c0 72 43 110 102 110c57 0 101 -43 101 -105c0 -45 -24 -73 -42 -73c18 0 42 -21 42 -72c0 -71 -44 -107 -101 -107
c-59 0 -102 37 -102 111z" />
    <glyph glyph-name="multiply" unicode="&#xd7;" horiz-adv-x="436" 
d="M283 301l140 -226h-158l-61 102l-63 -102h-158l142 226l-142 228h157l64 -105c20 36 44 79 60 105h157z" />
    <glyph glyph-name="asterisk" unicode="*" horiz-adv-x="532" 
d="M287 641l79 60l66 -111l-90 -40l88 -35l-63 -115l-80 59l11 -100h-123l11 100l-80 -59l-65 114l87 36l-88 40l67 110l79 -58l-11 101h123z" />
    <glyph glyph-name="ordfeminine" unicode="&#xaa;" horiz-adv-x="259" 
d="M215 653v-124l5 -52h-68v24c-6 -12 -20 -25 -43 -27c-73 -5 -83 50 -83 91c0 46 23 97 88 95c14 -1 28 -5 36 -14c0 36 -17 44 -34 46c-16 1 -29 -3 -46 -20l-34 23c19 45 49 60 83 60c35 0 96 -15 96 -102zM124 593c-20 0 -33 -13 -33 -28c0 -12 7 -24 28 -24
c12 0 25 6 31 15v24c-3 8 -15 13 -26 13z" />
    <glyph glyph-name="threequarters" unicode="&#xbe;" horiz-adv-x="830" 
d="M167 -43l318 786h109l-315 -786h-112zM145 460h-69c0 -73 43 -110 101 -110c57 0 101 36 101 106c0 51 -25 72 -42 72c17 0 42 27 42 72c0 62 -44 105 -101 105c-58 0 -101 -38 -101 -109h68c0 28 11 39 33 39c20 0 33 -16 33 -35c0 -15 -7 -39 -25 -39h-20v-64h20
c18 0 25 -26 25 -41c0 -19 -12 -35 -33 -35c-23 0 -32 13 -32 39zM574 169h69v-34h26v-70h-26v-66h-69v66h-113v70l120 214h77l-120 -214h36v34z" />
    <glyph glyph-name="ellipsis" unicode="&#x2026;" horiz-adv-x="668" 
d="M190 87c0 -52 -38 -92 -88 -92s-87 40 -87 92c0 54 37 93 87 93s88 -39 88 -93zM402 87c0 -52 -37 -92 -86 -92c-51 0 -88 40 -88 92c0 54 37 93 88 93c49 0 86 -39 86 -93zM615 87c0 -52 -36 -92 -87 -92c-50 0 -87 40 -87 92c0 54 37 93 87 93c51 0 87 -39 87 -93z" />
    <glyph glyph-name="dieresis" unicode="&#xa8;" horiz-adv-x="470" 
d="M50 778c0 52 37 91 86 91c51 0 89 -39 89 -91c0 -53 -38 -93 -89 -93c-49 0 -86 40 -86 93zM269 778c0 52 36 91 87 91c50 0 87 -39 87 -91c0 -53 -37 -93 -87 -93c-51 0 -87 40 -87 93z" />
    <glyph glyph-name="Ydieresis" unicode="&#x178;" horiz-adv-x="439" 
d="M135 0v236l-184 464h146l108 -280c24 62 55 149 109 280h143l-183 -464v-236h-139zM7 878c0 52 37 91 86 91c51 0 89 -39 89 -91c0 -53 -38 -93 -89 -93c-49 0 -86 40 -86 93zM226 878c0 52 36 91 87 91c50 0 87 -39 87 -91c0 -53 -37 -93 -87 -93c-51 0 -87 40 -87 93z
" />
    <glyph glyph-name="acute" unicode="&#xb4;" horiz-adv-x="833" 
d="M271 741h-159l118 216h158z" />
    <glyph glyph-name="eacute" unicode="&#xe9;" horiz-adv-x="494" 
d="M287 206h129c0 -137 -69 -211 -199 -211c-163 0 -202 125 -202 280c0 161 50 280 202 280s199 -123 199 -246v-46h-270c0 -91 17 -135 71 -135c49 0 70 22 70 78zM217 422c-49 0 -64 -35 -69 -76h136c0 45 -18 76 -67 76zM276 617h-127l95 173h126z" />
    <glyph glyph-name="edieresis" unicode="&#xeb;" horiz-adv-x="541" 
d="M287 206h129c0 -137 -69 -211 -199 -211c-163 0 -202 125 -202 280c0 161 50 280 202 280s199 -123 199 -246v-46h-270c0 -91 17 -135 71 -135c49 0 70 22 70 78zM217 422c-49 0 -64 -35 -69 -76h136c0 45 -18 76 -67 76zM62 713c0 42 29 73 68 73c41 0 71 -31 71 -73
c0 -43 -30 -75 -71 -75c-39 0 -68 32 -68 75zM236 713c0 42 29 73 69 73s69 -31 69 -73c0 -43 -29 -75 -69 -75s-69 32 -69 75z" />
    <glyph glyph-name="iacute" unicode="&#xed;" horiz-adv-x="275" 
d="M17 0h131v550h-131v-550zM148 661h-127l94 172h126z" />
    <glyph glyph-name="idieresis" unicode="&#xef;" horiz-adv-x="347" 
d="M61 0h130v550h-130v-550zM-26 753c0 42 29 73 68 73c41 0 71 -31 71 -73c0 -43 -30 -75 -71 -75c-39 0 -68 32 -68 75zM148 753c0 42 29 73 69 73s69 -31 69 -73c0 -43 -29 -75 -69 -75s-69 32 -69 75z" />
    <glyph glyph-name="oacute" unicode="&#xf3;" horiz-adv-x="532" 
d="M279 275c0 37 4 147 -69 147c-74 0 -72 -110 -72 -147s-2 -147 72 -147c73 0 69 110 69 147zM411 275c0 -79 0 -280 -201 -280s-201 201 -201 280s0 280 201 280s201 -201 201 -280zM264 617h-127l94 172h126z" />
    <glyph glyph-name="odieresis" unicode="&#xf6;" horiz-adv-x="532" 
d="M279 275c0 37 4 147 -69 147c-74 0 -72 -110 -72 -147s-2 -147 72 -147c73 0 69 110 69 147zM411 275c0 -79 0 -280 -201 -280s-201 201 -201 280s0 280 201 280s201 -201 201 -280zM54 714c0 42 29 73 68 73c41 0 71 -31 71 -73c0 -43 -30 -75 -71 -75
c-39 0 -68 32 -68 75zM228 714c0 42 29 73 69 73s69 -31 69 -73c0 -43 -29 -75 -69 -75s-69 32 -69 75z" />
    <glyph glyph-name="uacute" unicode="&#xfa;" horiz-adv-x="545" 
d="M423 118v431h-130v-301c0 -96 -34 -121 -78 -121c-53 0 -64 39 -64 121v301h-130v-308c0 -170 46 -259 184 -247c37 3 79 26 104 63v-58h122zM266 617h-127l94 172h126z" />
    <glyph glyph-name="udieresis" unicode="&#xfc;" horiz-adv-x="541" 
d="M423 118v431h-130v-301c0 -96 -34 -121 -78 -121c-53 0 -64 39 -64 121v301h-130v-308c0 -170 46 -259 184 -247c37 3 79 26 104 63v-58h122zM64 714c0 42 30 73 69 73c41 0 72 -31 72 -73c0 -43 -31 -75 -72 -75c-39 0 -69 32 -69 75zM240 714c0 42 29 73 70 73
c40 0 70 -31 70 -73c0 -43 -30 -75 -70 -75c-41 0 -70 32 -70 75z" />
    <glyph glyph-name="yacute" unicode="&#xfd;" horiz-adv-x="505" 
d="M255 -24l170 574h-137l-78 -309l-82 309h-133l151 -495c8 -31 7 -53 -18 -59c-20 -5 -31 6 -48 24l-46 -86c14 -24 64 -71 102 -71c41 0 91 25 119 113zM252 617h-127l94 172h126z" />
    <glyph glyph-name="ydieresis" unicode="&#xff;" horiz-adv-x="505" 
d="M255 -24l170 574h-137l-78 -309l-82 309h-133l151 -495c8 -31 7 -53 -18 -59c-20 -5 -31 6 -48 24l-46 -86c14 -24 64 -71 102 -71c41 0 91 25 119 113zM52 714c0 42 29 73 68 73c41 0 71 -31 71 -73c0 -43 -30 -75 -71 -75c-39 0 -68 32 -68 75zM226 714
c0 42 29 73 69 73s69 -31 69 -73c0 -43 -29 -75 -69 -75s-69 32 -69 75z" />
    <glyph glyph-name="grave" unicode="`" horiz-adv-x="833" 
d="M159 897h159l116 -216h-157z" />
    <glyph glyph-name="agrave" unicode="&#xe0;" 
d="M384 104v246c0 174 -122 205 -191 205c-68 0 -128 -31 -166 -120l67 -47c35 35 60 43 93 40s67 -19 67 -91c-15 17 -43 26 -72 27c-129 4 -175 -96 -175 -188c0 -82 20 -191 166 -181c46 3 73 28 85 53v-48h135zM202 231c23 0 47 -10 53 -26v-47c-13 -19 -39 -30 -62 -30
c-43 0 -56 23 -56 48c0 30 25 55 65 55zM36 791h127l92 -171h-125z" />
    <glyph glyph-name="aacute" unicode="&#xe1;" 
d="M384 104v246c0 174 -122 205 -191 205c-68 0 -128 -31 -166 -120l67 -47c35 35 60 43 93 40s67 -19 67 -91c-15 17 -43 26 -72 27c-129 4 -175 -96 -175 -188c0 -82 20 -191 166 -181c46 3 73 28 85 53v-48h135zM202 231c23 0 47 -10 53 -26v-47c-13 -19 -39 -30 -62 -30
c-43 0 -56 23 -56 48c0 30 25 55 65 55zM256 618h-127l95 170h126z" />
    <glyph glyph-name="adieresis" unicode="&#xe4;" 
d="M384 104v246c0 174 -122 205 -191 205c-68 0 -128 -31 -166 -120l67 -47c35 35 60 43 93 40s67 -19 67 -91c-15 17 -43 26 -72 27c-129 4 -175 -96 -175 -188c0 -82 20 -191 166 -181c46 3 73 28 85 53v-48h135zM202 231c23 0 47 -10 53 -26v-47c-13 -19 -39 -30 -62 -30
c-43 0 -56 23 -56 48c0 30 25 55 65 55zM52 712c0 42 29 73 68 73c41 0 71 -31 71 -73c0 -43 -30 -75 -71 -75c-39 0 -68 32 -68 75zM226 712c0 42 29 73 69 73s69 -31 69 -73c0 -43 -29 -75 -69 -75s-69 32 -69 75z" />
    <glyph glyph-name="egrave" unicode="&#xe8;" horiz-adv-x="536" 
d="M287 206h129c0 -137 -69 -211 -199 -211c-163 0 -202 125 -202 280c0 161 50 280 202 280s199 -123 199 -246v-46h-270c0 -91 17 -135 71 -135c49 0 70 22 70 78zM217 422c-49 0 -64 -35 -69 -76h136c0 45 -18 76 -67 76zM66 791h127l92 -171h-125z" />
    <glyph glyph-name="igrave" unicode="&#xec;" horiz-adv-x="279" 
d="M55 0h130v550h-130v-550zM-31 835h127l93 -172h-125z" />
    <glyph glyph-name="ograve" unicode="&#xf2;" horiz-adv-x="527" 
d="M279 275c0 37 4 147 -69 147c-74 0 -72 -110 -72 -147s-2 -147 72 -147c73 0 69 110 69 147zM411 275c0 -79 0 -280 -201 -280s-201 201 -201 280s0 280 201 280s201 -201 201 -280zM60 791h127l93 -172h-125z" />
    <glyph glyph-name="ugrave" unicode="&#xf9;" horiz-adv-x="545" 
d="M423 118v431h-130v-301c0 -96 -34 -121 -78 -121c-53 0 -64 39 -64 121v301h-130v-308c0 -170 46 -259 184 -247c37 3 79 26 104 63v-58h122zM90 791h127l93 -172h-125z" />
    <glyph glyph-name="circumflex" unicode="&#x2c6;" horiz-adv-x="833" 
d="M257 681h-136l109 186h100l109 -186h-137l-23 57z" />
    <glyph glyph-name="acircumflex" unicode="&#xe2;" 
d="M384 104v246c0 174 -122 205 -191 205c-68 0 -128 -31 -166 -120l67 -47c35 35 60 43 93 40s67 -19 67 -91c-15 17 -43 26 -72 27c-129 4 -175 -96 -175 -188c0 -82 20 -191 166 -181c46 3 73 28 85 53v-48h135zM202 231c23 0 47 -10 53 -26v-47c-13 -19 -39 -30 -62 -30
c-43 0 -56 23 -56 48c0 30 25 55 65 55zM183 629h-109l88 149h80l87 -149h-110l-18 45z" />
    <glyph glyph-name="ecircumflex" unicode="&#xea;" horiz-adv-x="541" 
d="M287 206h129c0 -137 -69 -211 -199 -211c-163 0 -202 125 -202 280c0 161 50 280 202 280s199 -123 199 -246v-46h-270c0 -91 17 -135 71 -135c49 0 70 22 70 78zM217 422c-49 0 -64 -35 -69 -76h136c0 45 -18 76 -67 76zM198 619h-109l88 149h80l88 -149h-110l-19 46z
" />
    <glyph glyph-name="icircumflex" unicode="&#xee;" horiz-adv-x="334" 
d="M84 0h131v550h-131v-550zM136 663h-108l87 148h79l87 -148h-109l-18 45z" />
    <glyph glyph-name="ocircumflex" unicode="&#xf4;" horiz-adv-x="527" 
d="M279 275c0 37 4 147 -69 147c-74 0 -72 -110 -72 -147s-2 -147 72 -147c73 0 69 110 69 147zM411 275c0 -79 0 -280 -201 -280s-201 201 -201 280s0 280 201 280s201 -201 201 -280zM194 619h-108l87 149h79l87 -149h-109l-18 46z" />
    <glyph glyph-name="ucircumflex" unicode="&#xfb;" horiz-adv-x="541" 
d="M423 118v431h-130v-301c0 -96 -34 -121 -78 -121c-53 0 -64 39 -64 121v301h-130v-308c0 -170 46 -259 184 -247c37 3 79 26 104 63v-58h122zM200 619h-108l87 148h79l87 -148h-109l-18 45z" />
    <glyph glyph-name="onesuperior" unicode="&#xb9;" horiz-adv-x="202" 
d="M8 620v92l52 38h55v-350h-69v247c-13 -10 -31 -21 -38 -27z" />
    <glyph glyph-name="currency" unicode="&#xa4;" horiz-adv-x="833" 
 />
    <glyph glyph-name="exclamdown" unicode="&#xa1;" horiz-adv-x="204" 
d="M12 -250v468h138v-468h-138zM158 372c0 -47 -33 -82 -78 -82c-44 0 -77 35 -77 82s33 83 77 83c45 0 78 -36 78 -83z" />
    <glyph glyph-name="questiondown" unicode="&#xbf;" horiz-adv-x="537" 
d="M255 227h137c0 -224 -176 -152 -176 -268c0 -34 16 -73 62 -73c40 0 67 23 67 58v26h138v-26c0 -67 -46 -199 -205 -199c-161 0 -199 138 -199 214c0 58 29 116 76 150s100 43 100 118zM246 372c0 47 33 83 77 83c45 0 78 -36 78 -83s-33 -82 -78 -82
c-44 0 -77 35 -77 82z" />
    <glyph glyph-name="logicalnot" unicode="&#xac;" horiz-adv-x="833" 
 />
    <glyph glyph-name="trademark" unicode="&#x2122;" horiz-adv-x="1061" 
d="M326 363v398h104l63 -184l63 184h105v-398h-103v165l-43 -165h-45l-42 162v-162h-102zM65 642v119h224v-119h-55v-279h-113v279h-56z" />
    <glyph glyph-name="at" unicode="@" horiz-adv-x="835" 
d="M694 137c-34 -95 -150 -194 -299 -187c-258 12 -365 224 -365 400c0 203 130 400 375 400c276 0 367 -232 347 -400c-23 -195 -161 -258 -226 -246c-40 7 -58 61 -59 80c-17 -32 -50 -64 -109 -64c-126 0 -156 134 -149 226c4 63 32 233 187 224c33 -2 46 -12 50 -19
l4 22h101l-33 -305c-10 -89 109 -78 124 78c12 128 -17 295 -237 295c-141 0 -243 -105 -256 -291c-10 -139 46 -294 266 -301c46 -1 166 0 279 88zM430 346c10 91 12 114 -33 120c-61 8 -69 -81 -73 -122c-5 -52 -10 -112 35 -120c51 -9 60 20 71 122z" />
    <glyph glyph-name="underscore" unicode="_" horiz-adv-x="644" 
d="M0 -39v131h604v-131h-604z" />
    <glyph glyph-name="tilde" unicode="&#x2dc;" horiz-adv-x="833" 
d="M173 696v124c50 50 140 59 197 27c60 -33 163 -34 200 3v-124c-46 -46 -145 -41 -200 -15c-56 27 -152 30 -197 -15z" />
    <glyph glyph-name="Ntilde" unicode="&#xd1;" horiz-adv-x="559" 
d="M28 0v700h123l183 -370v370h138v-700h-122l-184 369v-369h-138zM41 796v124c50 50 140 59 197 27c60 -33 163 -34 200 3v-124c-46 -46 -145 -41 -200 -15c-56 27 -152 30 -197 -15z" />
    <glyph glyph-name="atilde" unicode="&#xe3;" 
d="M384 104v246c0 174 -122 205 -191 205c-68 0 -128 -31 -166 -120l67 -47c35 35 60 43 93 40s67 -19 67 -91c-15 17 -43 26 -72 27c-129 4 -175 -96 -175 -188c0 -82 20 -191 166 -181c46 3 73 28 85 53v-48h135zM202 231c23 0 47 -10 53 -26v-47c-13 -19 -39 -30 -62 -30
c-43 0 -56 23 -56 48c0 30 25 55 65 55zM35 640v99c40 40 112 47 158 22c48 -27 130 -28 160 2v-99c-37 -37 -116 -33 -160 -12c-45 21 -122 24 -158 -12z" />
    <glyph glyph-name="ntilde" unicode="&#xf1;" horiz-adv-x="559" 
d="M28 431v-431h130v301c0 96 34 121 78 121c53 0 64 -39 64 -121v-301h130v308c0 170 -46 259 -184 247c-37 -3 -79 -26 -104 -63v58h-122zM29 638v124c50 50 140 59 197 27c60 -33 163 -34 200 3v-124c-46 -46 -145 -41 -200 -15c-56 27 -152 30 -197 -15z" />
    <glyph glyph-name="otilde" unicode="&#xf5;" horiz-adv-x="532" 
d="M279 275c0 37 4 147 -69 147c-74 0 -72 -110 -72 -147s-2 -147 72 -147c73 0 69 110 69 147zM411 275c0 -79 0 -280 -201 -280s-201 201 -201 280s0 280 201 280s201 -201 201 -280zM52 642v99c40 40 112 47 158 22c48 -27 130 -28 160 2v-99c-37 -37 -116 -33 -160 -12
c-45 21 -122 24 -158 -12z" />
    <glyph glyph-name="dagger" unicode="&#x2020;" horiz-adv-x="228" 
d="M168 -86h-125v327h-127v141h127v446h125v-446h129v-141h-129v-327z" />
    <glyph glyph-name="daggerdbl" unicode="&#x2021;" 
d="M268 -86h-125v914h125v-914zM36 275v120h336v-120h-336zM36 124v121h336v-121h-336z" />
    <glyph glyph-name="guilsinglleft" unicode="&#x2039;" horiz-adv-x="529" 
d="M223 297l178 -277h-163l-177 276l177 276h163z" />
    <glyph glyph-name="guillemotleft" unicode="&#xab;" horiz-adv-x="772" 
d="M211 296l180 -276h-163l-178 276l178 276h163zM464 295l178 -275h-163l-178 276l178 276h163z" />
    <glyph glyph-name="guillemotright" unicode="&#xbb;" horiz-adv-x="782" 
d="M331 20l178 276l-178 276h163l178 -276l-178 -276h-163zM80 20l177 276l-177 276h163l177 -276l-177 -276h-163z" />
    <glyph glyph-name="guilsinglright" unicode="&#x203a;" horiz-adv-x="562" 
d="M132 20l178 276l-178 276h164l178 -276l-178 -276h-164z" />
    <glyph glyph-name="less" unicode="&#x3c;" horiz-adv-x="510" 
d="M202 287l178 -287h-163l-177 286l177 286h163z" />
    <glyph glyph-name="greater" unicode="&#x3e;" horiz-adv-x="521" 
d="M80 0l178 286l-178 286h163l178 -286l-178 -286h-163z" />
    <glyph glyph-name="asciitilde" unicode="~" 
d="M10 257v124c36 63 109 82 207 27c90 -50 158 -47 190 3v-124c-39 -58 -127 -68 -210 -15c-75 48 -153 47 -187 -15z" />
    <glyph glyph-name="asciicircum" unicode="^" horiz-adv-x="443" 
d="M185 681h-126l109 216h100l109 -216h-126l-33 56z" />
    <glyph glyph-name="cedilla" unicode="&#xb8;" horiz-adv-x="833" 
d="M372 -127h50c0 -3 1 -16 12 -16s13 17 13 31c0 13 -2 30 -13 30s-12 -13 -12 -17h-50c0 18 1 32 31 112h72l-17 -44c53 6 71 -33 71 -81s-23 -85 -72 -89c-67 -6 -85 27 -85 74z" />
    <glyph glyph-name="Ccedilla" unicode="&#xc7;" horiz-adv-x="516" 
d="M163 -127h50c0 -3 1 -16 12 -16s13 17 13 31c0 13 -2 30 -13 30s-12 -13 -12 -17h-50c0 17 0 30 25 98c-159 25 -181 174 -181 351c0 194 27 355 233 355c108 0 209 -53 209 -200v-37h-136v37c0 42 -28 59 -73 59c-85 0 -95 -85 -95 -214s10 -214 95 -214
c44 0 72 19 72 59v37h137v-37c0 -139 -89 -194 -190 -199l-10 -27c53 6 71 -33 71 -81s-23 -85 -72 -89c-67 -6 -85 27 -85 74z" />
    <glyph glyph-name="ccedilla" unicode="&#xe7;" horiz-adv-x="496" 
d="M145 -104h40c0 -3 1 -13 10 -13c8 0 10 13 10 25c0 10 -2 23 -10 23c-9 0 -10 -10 -10 -13h-40c0 14 1 25 22 82c-120 24 -162 147 -162 275c0 143 53 280 209 280c118 0 191 -93 191 -211h-118c0 65 -38 78 -73 78c-58 0 -78 -53 -78 -147s20 -147 78 -147
c35 0 72 18 72 78h119c0 -130 -80 -207 -183 -211l-8 -23c42 5 56 -26 56 -64c0 -39 -18 -68 -57 -72c-53 -4 -68 22 -68 60z" />
    <glyph glyph-name="braceleft" unicode="{" horiz-adv-x="411" 
d="M281 76v-123c-190 0 -209 111 -209 242c1 87 -16 99 -32 99v112c16 0 33 12 33 98c0 132 19 243 208 243v-123c-59 0 -72 -31 -73 -68l6 -144c0 -18 -13 -42 -21 -64c9 -22 21 -46 21 -62c0 -80 -6 -92 -6 -141c0 -42 11 -69 73 -69z" />
    <glyph glyph-name="braceright" unicode="}" horiz-adv-x="421" 
d="M80 -47v123c62 0 73 27 73 69c0 49 -6 61 -6 141c0 16 12 40 21 62c-8 22 -21 46 -21 64l6 144c-1 37 -14 68 -73 68v123c189 0 208 -111 208 -243c0 -86 17 -98 33 -98v-112c-16 0 -33 -12 -32 -99c0 -131 -19 -242 -209 -242z" />
    <glyph glyph-name="oslash" unicode="&#xf8;" horiz-adv-x="527" 
d="M24 -44l40 99c-55 65 -55 168 -55 220c0 79 0 280 201 280c20 0 38 -2 54 -6l15 36h117l-38 -94c53 -66 53 -166 53 -216c0 -79 0 -280 -201 -280c-18 0 -35 2 -50 5l-17 -44h-119zM138 275c0 -9 -1 -22 0 -36l75 183h-3c-74 0 -72 -110 -72 -147zM279 275v19l-67 -166
c71 2 67 110 67 147z" />
    <glyph glyph-name="Oslash" unicode="&#xd8;" horiz-adv-x="559" 
d="M15 -43l47 116c-46 65 -54 165 -54 277c0 195 25 355 232 355c27 0 52 -3 74 -9l19 47h146l-52 -128c41 -65 49 -160 49 -265c0 -195 -28 -355 -236 -355c-22 0 -42 2 -60 5l-17 -43h-148zM146 350c0 -24 0 -46 1 -67l113 279c-6 1 -13 2 -20 2c-85 0 -94 -85 -94 -214z
M337 350c0 13 0 26 -1 39l-101 -253h5c87 0 97 84 97 214z" />
    <glyph glyph-name="divide" unicode="&#xf7;" horiz-adv-x="465" 
d="M304 522c0 -52 -36 -92 -87 -92c-49 0 -87 40 -87 92c0 53 38 92 87 92c51 0 87 -39 87 -92zM304 116c0 -52 -36 -92 -87 -92c-49 0 -87 40 -87 92c0 53 38 92 87 92c51 0 87 -39 87 -92zM28 250v141h380v-141h-380z" />
    <glyph glyph-name="sterling" unicode="&#xa3;" horiz-adv-x="528" 
d="M30 223v141h37c-26 99 -29 124 -29 154c0 93 45 187 189 187c172 0 181 -163 181 -231h-125c0 45 -10 89 -56 90s-53 -34 -51 -57s3 -21 35 -143h164v-141h-139c1 -13 1 -26 1 -37c0 -18 0 -31 -3 -45h174v-141h-378v141c47 0 64 19 64 49c0 17 2 12 -1 33h-63z" />
    <glyph glyph-name="caron" unicode="&#x2c7;" horiz-adv-x="833" 
d="M121 867h136l22 -57l23 57h137l-109 -186h-100z" />
    <glyph glyph-name="zcaron" unicode="&#x17e;" horiz-adv-x="456" 
d="M6 550v-132h205l-205 -318v-100h383v132h-204l204 318v100h-383zM48 797h136l22 -57l23 57h137l-109 -186h-100z" />
    <glyph glyph-name="Zcaron" unicode="&#x17d;" horiz-adv-x="447" 
d="M1 559v141h415v-104l-238 -455h238v-141h-415v105l238 454h-238zM44 967h136l22 -57l23 57h137l-109 -186h-100z" />
    <glyph glyph-name="Scaron" unicode="&#x160;" horiz-adv-x="519" 
d="M10 208v36l138 -10v-26c0 -39 25 -72 96 -72c63 0 71 37 71 56c0 43 -51 63 -105 84c-92 36 -191 74 -191 224c0 57 32 205 216 205c180 0 210 -153 210 -209v-36l-139 10v26c0 38 -22 68 -71 68c-47 0 -78 -26 -78 -64c0 -47 54 -69 107 -89c90 -33 190 -78 190 -219
c0 -93 -47 -197 -210 -197c-230 0 -234 182 -234 213zM80 967h136l22 -57l23 57h137l-109 -186h-100z" />
    <glyph glyph-name="scaron" unicode="&#x161;" horiz-adv-x="449" 
d="M17 186l130 -10c0 -28 28 -48 64 -48c41 0 47 26 47 38c0 24 -21 44 -75 57c-73 18 -159 47 -159 165c0 47 25 167 172 167c143 0 187 -117 187 -188l-130 10c0 29 -23 45 -57 45c-27 0 -42 -17 -42 -36c0 -24 15 -42 77 -59c70 -19 158 -59 158 -163
c0 -73 -47 -169 -178 -169c-179 0 -194 160 -194 191zM45 797h136l22 -57l23 57h137l-109 -186h-100z" />
    <glyph glyph-name="Agrave" unicode="&#xc0;" horiz-adv-x="619" 
d="M-1 0l200 700h129l199 -700h-143l-33 121h-176l-32 -121h-144zM263 432l-49 -170h99c-5 14 -9 27 -50 170zM62 997h159l116 -216h-157z" />
    <glyph glyph-name="Aacute" unicode="&#xc1;" horiz-adv-x="618" 
d="M-1 0l200 700h129l199 -700h-143l-33 121h-176l-32 -121h-144zM263 432l-49 -170h99c-5 14 -9 27 -50 170zM346 781h-159l118 216h158z" />
    <glyph glyph-name="Acircumflex" unicode="&#xc2;" horiz-adv-x="618" 
d="M-1 0l200 700h129l199 -700h-143l-33 121h-176l-32 -121h-144zM263 432l-49 -170h99c-5 14 -9 27 -50 170zM238 781h-136l109 186h100l109 -186h-137l-23 57z" />
    <glyph glyph-name="Atilde" unicode="&#xc3;" horiz-adv-x="619" 
d="M0 0l200 700h129l199 -700h-143l-33 121h-176l-32 -121h-144zM264 432l-49 -170h99c-5 14 -9 27 -50 170zM67 796v124c50 50 140 59 197 27c60 -33 163 -34 200 3v-124c-46 -46 -145 -41 -200 -15c-56 27 -152 30 -197 -15z" />
    <glyph glyph-name="Adieresis" unicode="&#xc4;" horiz-adv-x="619" 
d="M-1 0l200 700h129l199 -700h-143l-33 121h-176l-32 -121h-144zM263 432l-49 -170h99c-5 14 -9 27 -50 170zM66 878c0 52 37 91 86 91c51 0 89 -39 89 -91c0 -53 -38 -93 -89 -93c-49 0 -86 40 -86 93zM285 878c0 52 36 91 87 91c50 0 87 -39 87 -91
c0 -53 -37 -93 -87 -93c-51 0 -87 40 -87 93z" />
    <glyph glyph-name="AE" unicode="&#xc6;" horiz-adv-x="1081" 
d="M328 0v121h-107l-32 -121h-144l200 700h434v-141h-212v-146h177v-141h-177v-131h218v-141h-357zM328 503l-68 -241h68v241z" />
    <glyph glyph-name="Egrave" unicode="&#xc8;" horiz-adv-x="462" 
d="M26 0v700h351v-141h-212v-146h177v-141h-177v-131h218v-141h-357zM34 997h159l116 -216h-157z" />
    <glyph glyph-name="Eacute" unicode="&#xc9;" horiz-adv-x="462" 
d="M26 0v700h351v-141h-212v-146h177v-141h-177v-131h218v-141h-357zM292 781h-159l118 216h158z" />
    <glyph glyph-name="Ecircumflex" unicode="&#xca;" horiz-adv-x="462" 
d="M26 0v700h351v-141h-212v-146h177v-141h-177v-131h218v-141h-357zM188 781h-136l109 186h100l109 -186h-137l-23 57z" />
    <glyph glyph-name="Edieresis" unicode="&#xcb;" horiz-adv-x="462" 
d="M26 0v700h351v-141h-212v-146h177v-141h-177v-131h218v-141h-357zM5 878c0 52 37 91 86 91c51 0 89 -39 89 -91c0 -53 -38 -93 -89 -93c-49 0 -86 40 -86 93zM224 878c0 52 36 91 87 91c50 0 87 -39 87 -91c0 -53 -37 -93 -87 -93c-51 0 -87 40 -87 93z" />
    <glyph glyph-name="Igrave" unicode="&#xcc;" horiz-adv-x="267" 
d="M34 0v700h139v-700h-139zM-91 997h159l116 -216h-157z" />
    <glyph glyph-name="Iacute" unicode="&#xcd;" horiz-adv-x="263" 
d="M30 0v700h139v-700h-139zM184 781h-159l118 216h158z" />
    <glyph glyph-name="Icircumflex" unicode="&#xce;" horiz-adv-x="383" 
d="M104 0v700h139v-700h-139zM154 781h-136l109 186h100l109 -186h-137l-23 57z" />
    <glyph glyph-name="Idieresis" unicode="&#xcf;" horiz-adv-x="357" 
d="M76 0v700h139v-700h-139zM-51 878c0 52 37 91 86 91c51 0 89 -39 89 -91c0 -53 -38 -93 -89 -93c-49 0 -86 40 -86 93zM168 878c0 52 36 91 87 91c50 0 87 -39 87 -91c0 -53 -37 -93 -87 -93c-51 0 -87 40 -87 93z" />
    <glyph glyph-name="Eth" unicode="&#xd0;" horiz-adv-x="545" 
d="M-148 251v141h167v308h207c204 0 236 -156 236 -350s-32 -350 -236 -350h-207v251h-167zM158 559v-167h74v-141h-74v-111h67c85 2 98 81 98 210c0 128 -13 209 -97 209h-68z" />
    <glyph glyph-name="Ograve" unicode="&#xd2;" horiz-adv-x="553" 
d="M146 350c0 -130 9 -214 94 -214c87 0 97 84 97 214c0 129 -10 214 -97 214c-85 0 -94 -85 -94 -214zM8 350c0 195 25 355 232 355c208 0 236 -160 236 -355s-28 -355 -236 -355c-207 0 -232 160 -232 355zM39 997h159l116 -216h-157z" />
    <glyph glyph-name="Oacute" unicode="&#xd3;" horiz-adv-x="553" 
d="M146 350c0 -130 9 -214 94 -214c87 0 97 84 97 214c0 129 -10 214 -97 214c-85 0 -94 -85 -94 -214zM8 350c0 195 25 355 232 355c208 0 236 -160 236 -355s-28 -355 -236 -355c-207 0 -232 160 -232 355zM317 781h-159l118 216h158z" />
    <glyph glyph-name="Ocircumflex" unicode="&#xd4;" horiz-adv-x="553" 
d="M146 350c0 -130 9 -214 94 -214c87 0 97 84 97 214c0 129 -10 214 -97 214c-85 0 -94 -85 -94 -214zM8 350c0 195 25 355 232 355c208 0 236 -160 236 -355s-28 -355 -236 -355c-207 0 -232 160 -232 355zM216 781h-136l109 186h100l109 -186h-137l-23 57z" />
    <glyph glyph-name="Otilde" unicode="&#xd5;" horiz-adv-x="553" 
d="M146 350c0 -130 9 -214 94 -214c87 0 97 84 97 214c0 129 -10 214 -97 214c-85 0 -94 -85 -94 -214zM8 350c0 195 25 355 232 355c208 0 236 -160 236 -355s-28 -355 -236 -355c-207 0 -232 160 -232 355zM41 796v124c50 50 140 59 197 27c60 -33 163 -34 200 3v-124
c-46 -46 -145 -41 -200 -15c-56 27 -152 30 -197 -15z" />
    <glyph glyph-name="Odieresis" unicode="&#xd6;" horiz-adv-x="553" 
d="M146 350c0 -130 9 -214 94 -214c87 0 97 84 97 214c0 129 -10 214 -97 214c-85 0 -94 -85 -94 -214zM8 350c0 195 25 355 232 355c208 0 236 -160 236 -355s-28 -355 -236 -355c-207 0 -232 160 -232 355zM43 878c0 52 37 91 86 91c51 0 89 -39 89 -91
c0 -53 -38 -93 -89 -93c-49 0 -86 40 -86 93zM262 878c0 52 36 91 87 91c50 0 87 -39 87 -91c0 -53 -37 -93 -87 -93c-51 0 -87 40 -87 93z" />
    <glyph glyph-name="Uacute" unicode="&#xda;" horiz-adv-x="553" 
d="M32 700h139v-486c0 -53 21 -78 77 -78c57 0 80 25 80 78v486h139v-486c0 -154 -86 -219 -219 -219s-216 65 -216 219v486zM307 781h-159l118 216h158z" />
    <glyph glyph-name="Ucircumflex" unicode="&#xdb;" horiz-adv-x="553" 
d="M32 700h139v-486c0 -53 21 -78 77 -78c57 0 80 25 80 78v486h139v-486c0 -154 -86 -219 -219 -219s-216 65 -216 219v486zM224 781h-136l109 186h100l109 -186h-137l-23 57z" />
    <glyph glyph-name="Udieresis" unicode="&#xdc;" horiz-adv-x="553" 
d="M32 700h139v-486c0 -53 21 -78 77 -78c57 0 80 25 80 78v486h139v-486c0 -154 -86 -219 -219 -219s-216 65 -216 219v486zM53 878c0 52 37 91 86 91c51 0 89 -39 89 -91c0 -53 -38 -93 -89 -93c-49 0 -86 40 -86 93zM272 878c0 52 36 91 87 91c50 0 87 -39 87 -91
c0 -53 -37 -93 -87 -93c-51 0 -87 40 -87 93z" />
    <glyph glyph-name="Ugrave" unicode="&#xd9;" horiz-adv-x="553" 
d="M32 700h139v-486c0 -53 21 -78 77 -78c57 0 80 25 80 78v486h139v-486c0 -154 -86 -219 -219 -219s-216 65 -216 219v486zM59 997h159l116 -216h-157z" />
    <glyph glyph-name="Yacute" unicode="&#xdd;" horiz-adv-x="531" 
d="M166 0v236l-184 464h146l108 -280c24 62 55 149 109 280h143l-183 -464v-236h-139zM286 781h-159l118 216h158z" />
    <glyph glyph-name="fi" unicode="&#xfb01;" horiz-adv-x="601" 
d="M314 638l-55 -55c-10 14 -20 27 -43 24s-36 -26 -37 -57h195v-550h-131v418h-64v-418h-130v418h-44v132h44c5 122 67 170 142 170c54 0 101 -35 123 -82z" />
    <glyph glyph-name="fl" unicode="&#xfb02;" horiz-adv-x="659" 
d="M397 550l1 -382c0 -17 2 -30 12 -33c7 -2 14 0 20 7l63 -87c-58 -60 -101 -60 -117 -60c-108 0 -108 67 -108 181l1 354c0 45 -18 81 -53 77c-23 -3 -36 -26 -37 -57h47v-132h-47v-418h-130v418h-44v132h44c5 122 77 162 152 170c126 13 196 -72 196 -170z" />
    </font>
</defs>
</svg>
