<?xml version="1.0" standalone="no"?>
<!DOCTYPE svg PUBLIC "-//W3C//DTD SVG 1.1//EN" "http://www.w3.org/Graphics/SVG/1.1/DTD/svg11.dtd" >
<svg xmlns="http://www.w3.org/2000/svg" xmlns:xlink="http://www.w3.org/1999/xlink" version="1.1">
<metadata>
Created by FontForge 20161116 at Thu Nov 12 17:02:53 2015
 By Jimmy Wärting
Copyright (c) 2015 by Mathieu Desjardins. All rights reserved.
</metadata>
<defs>
<font id="Stellar-Medium" horiz-adv-x="833" >
  <font-face 
    font-family="Stellar"
    font-weight="500"
    font-stretch="normal"
    units-per-em="1000"
    panose-1="2 0 5 6 4 0 0 2 0 4"
    ascent="750"
    descent="-250"
    x-height="550"
    cap-height="700"
    bbox="-84 -255 872 952"
    underline-thickness="50"
    underline-position="-100"
    stemh="50"
    stemv="60"
    unicode-range="U+000D-FB01"
  />
<missing-glyph horiz-adv-x="228" 
 />
    <glyph glyph-name=".notdef" horiz-adv-x="228" 
 />
    <glyph glyph-name="NULL" horiz-adv-x="0" 
 />
    <glyph glyph-name="NULL" horiz-adv-x="0" 
 />
    <glyph glyph-name="CR" unicode="&#xd;" horiz-adv-x="228" 
 />
    <glyph glyph-name="space" unicode=" " horiz-adv-x="228" 
 />
    <glyph glyph-name="F" unicode="F" horiz-adv-x="476" 
d="M40 0v700h336v-99h-235v-245h194v-99h-194v-257h-101z" />
    <glyph glyph-name="H" unicode="H" horiz-adv-x="528" 
d="M40 0v700h101v-338h186v338h101v-700h-101v263h-186v-263h-101z" />
    <glyph glyph-name="T" unicode="T" horiz-adv-x="459" 
d="M0 601v99h379v-99h-139v-601h-101v601h-139z" />
    <glyph glyph-name="U" unicode="U" horiz-adv-x="554" 
d="M30 700h101v-496c0 -74 30 -110 107 -110c78 0 110 36 110 110v496h101v-496c0 -148 -83 -209 -211 -209s-208 61 -208 209v496z" />
    <glyph glyph-name="I" unicode="I" horiz-adv-x="241" 
d="M30 0v700h101v-700h-101z" />
    <glyph glyph-name="Q" unicode="Q" horiz-adv-x="619" 
d="M40 350c0 195 25 355 227 355s228 -160 228 -355c0 -113 -9 -214 -58 -280c14 -22 39 -40 92 -40v-99c-101 0 -144 39 -169 80c-27 -12 -57 -16 -93 -16c-202 0 -227 160 -227 355zM141 350c0 -156 11 -256 126 -256c15 0 27 1 40 5c-13 8 -35 13 -63 13v100
c67 0 109 -16 133 -38c16 44 17 103 17 176c0 155 -14 256 -127 256c-115 0 -126 -101 -126 -256z" />
    <glyph glyph-name="P" unicode="P" horiz-adv-x="521" 
d="M40 0v700h162c198 0 229 -134 229 -239s-31 -239 -229 -239h-61v-222h-101zM141 601v-279h61c111 4 128 61 128 139c0 77 -17 140 -128 140h-61z" />
    <glyph glyph-name="R" unicode="R" horiz-adv-x="519" 
d="M30 0v700h162c198 0 229 -134 229 -239c0 -79 -18 -174 -114 -217l132 -244h-113l-121 222h-74v-222h-101zM131 601v-279h61c112 4 128 61 128 139c0 77 -16 140 -128 140h-61z" />
    <glyph glyph-name="M" unicode="M" horiz-adv-x="711" 
d="M40 0v700h104l176 -518l177 518h104v-700h-100v410l-139 -410h-85l-136 405v-405h-101z" />
    <glyph glyph-name="V" unicode="V" horiz-adv-x="506" 
d="M220 187l129 513h102l-179 -700h-103l-179 700h103z" />
    <glyph glyph-name="L" unicode="L" horiz-adv-x="442" 
d="M40 0v700h100v-597h222v-103h-322z" />
    <glyph glyph-name="N" unicode="N" horiz-adv-x="579" 
d="M40 0v700h95l234 -461v461h100v-700h-93l-235 460v-460h-101z" />
    <glyph glyph-name="C" unicode="C" horiz-adv-x="567" 
d="M467 229v-45c0 -141 -97 -189 -201 -189c-200 0 -226 161 -226 355s26 355 226 355c104 0 201 -50 201 -189v-45h-99v45c0 64 -39 90 -102 90c-112 0 -126 -101 -126 -256s14 -256 126 -256c62 0 101 29 101 90v45h100z" />
    <glyph glyph-name="G" unicode="G" horiz-adv-x="562" 
d="M277 277v99h200v-153c0 -178 -107 -228 -211 -228c-200 0 -226 161 -226 355s26 355 226 355c108 0 201 -56 201 -190v-45h-99v45c0 68 -47 91 -102 91c-112 0 -125 -101 -125 -256s13 -256 125 -256c63 0 110 43 110 129v54h-99z" />
    <glyph glyph-name="K" unicode="K" horiz-adv-x="516" 
d="M30 0v700h101v-305l202 305h123l-232 -348l229 -352h-122l-168 258l-32 -47v-211h-101z" />
    <glyph glyph-name="J" unicode="J" horiz-adv-x="340" 
d="M0 40l36 84c14 -14 40 -31 57 -31c26 0 57 18 57 91v516h100v-516c0 -147 -75 -189 -143 -189c-40 0 -82 21 -107 45z" />
    <glyph glyph-name="Y" unicode="Y" horiz-adv-x="522" 
d="M176 0v232l-186 468h105l132 -329c29 75 58 148 132 329h103l-185 -468v-232h-101z" />
    <glyph glyph-name="Z" unicode="Z" horiz-adv-x="533" 
d="M30 601v99h398v-80l-273 -521h273v-99h-398v81l273 520h-273z" />
    <glyph glyph-name="S" unicode="S" horiz-adv-x="554" 
d="M30 197v45h100v-45c0 -55 33 -103 127 -103c89 0 101 58 101 86c0 64 -62 89 -128 114c-92 36 -191 74 -191 217c0 54 31 194 209 194c172 0 201 -145 201 -198v-45h-101v45c0 55 -32 99 -100 99c-65 0 -108 -38 -108 -95c0 -68 64 -94 131 -119c92 -34 188 -72 188 -212
c0 -88 -46 -185 -202 -185c-223 0 -227 173 -227 202z" />
    <glyph glyph-name="E" unicode="E" horiz-adv-x="466" 
d="M40 0v700h329v-99h-228v-217h190v-99h-190v-186h235v-99h-336z" />
    <glyph glyph-name="X" unicode="X" horiz-adv-x="537" 
d="M4 0l176 340l-180 359h112l129 -252c43 84 85 169 129 252h112l-181 -349l177 -350h-112l-124 241c-14 -26 -28 -54 -126 -241h-112z" />
    <glyph glyph-name="W" unicode="W" horiz-adv-x="817" 
d="M92 700l107 -488l108 488h108l107 -486c26 122 54 244 108 486h102l-155 -700h-109l-107 484c-37 -166 -72 -320 -107 -484h-109l-155 700h102z" />
    <glyph glyph-name="B" unicode="B" horiz-adv-x="554" 
d="M40 0v700h196c154 0 191 -111 191 -200c0 -45 -14 -95 -48 -134c60 -39 85 -107 85 -164c0 -90 -30 -202 -228 -202h-196zM141 305v-206h95c111 3 127 47 127 103c0 55 -24 103 -137 103h-85zM141 601v-197h85c86 0 100 57 100 96s-7 101 -90 101h-95z" />
    <glyph glyph-name="O" unicode="O" horiz-adv-x="605" 
d="M141 350c0 -156 11 -256 125 -256c115 0 128 100 128 256c0 155 -13 256 -128 256c-114 0 -125 -101 -125 -256zM40 350c0 195 24 355 226 355s229 -160 229 -355s-27 -355 -229 -355s-226 160 -226 355z" />
    <glyph glyph-name="b" unicode="b" horiz-adv-x="528" 
d="M47 731h94v-210c30 23 63 34 100 34c181 0 197 -200 197 -280s-14 -280 -197 -280c-45 0 -77 14 -100 33c-1 -7 -1 -15 -1 -28h-100l7 88v643zM138 275c0 -48 -4 -187 100 -187c99 0 103 135 103 187c0 43 -4 187 -103 187c-104 0 -100 -139 -100 -187z" />
    <glyph glyph-name="d" unicode="d" horiz-adv-x="536" 
d="M432 731v-644l4 -87h-99l-1 28c-22 -20 -54 -33 -99 -33c-182 0 -197 200 -197 280s16 280 197 280c37 0 70 -11 99 -34v210h96zM339 275c0 48 5 187 -100 187c-99 0 -102 -144 -102 -187c0 -52 3 -187 102 -187c105 0 100 139 100 187z" />
    <glyph glyph-name="q" unicode="q" horiz-adv-x="548" 
d="M438 550l-7 -88v-688h-94v255c-29 -23 -63 -34 -100 -34c-181 0 -197 200 -197 280s15 280 197 280c45 0 77 -14 100 -33l2 28h99zM340 275c0 48 5 187 -100 187c-99 0 -103 -135 -103 -187c0 -43 4 -187 103 -187c105 0 100 139 100 187z" />
    <glyph glyph-name="p" unicode="p" horiz-adv-x="537" 
d="M45 -226v690c-1 33 -5 48 -5 86h99l1 -29c25 19 57 34 100 34c182 0 197 -200 197 -280s-16 -280 -197 -280c-37 0 -71 11 -100 34v-255h-95zM137 275c0 -48 -5 -187 100 -187c99 0 103 144 103 187c0 52 -4 187 -103 187c-105 0 -100 -139 -100 -187z" />
    <glyph glyph-name="o" unicode="o" horiz-adv-x="503" 
d="M316 275c0 48 5 187 -99 187c-106 0 -103 -139 -103 -187s-3 -187 103 -187c104 0 99 139 99 187zM412 275c0 -80 1 -280 -195 -280s-197 200 -197 280s1 280 197 280s195 -200 195 -280z" />
    <glyph glyph-name="n" unicode="n" horiz-adv-x="538" 
d="M47 0v448l-7 102h87l7 -38c26 26 64 43 116 43c143 0 188 -76 188 -244v-311h-94v303c0 107 -16 159 -94 159c-62 0 -109 -34 -109 -159v-303h-94z" />
    <glyph glyph-name="m" unicode="m" horiz-adv-x="817" 
d="M47 0v449l-7 101h89l5 -37c25 23 64 42 112 42c72 0 123 -28 151 -72c35 46 84 72 137 72c143 0 183 -76 183 -244v-311h-94v303c0 107 -12 159 -89 159c-61 0 -102 -32 -104 -149v-313h-95v321c-2 95 -17 141 -89 141c-62 0 -105 -34 -105 -159v-303h-94z" />
    <glyph glyph-name="c" unicode="c" horiz-adv-x="498" 
d="M325 206h93c0 -137 -70 -211 -174 -211c-152 0 -204 137 -204 280s52 280 204 280c113 0 174 -92 174 -211h-92c0 76 -27 118 -82 118c-81 0 -109 -67 -109 -187s28 -187 109 -187c55 0 81 47 81 118z" />
    <glyph glyph-name="u" unicode="u" horiz-adv-x="528" 
d="M421 550v-448l7 -102h-86l-7 38c-27 -26 -65 -43 -116 -43c-144 0 -189 76 -189 244v311h94v-303c0 -107 17 -159 95 -159c62 0 108 34 108 159v303h94z" />
    <glyph glyph-name="r" unicode="r" horiz-adv-x="380" 
d="M46 0v448l-6 102h88l4 -77c16 52 61 82 109 82c38 0 71 -11 99 -33l-59 -78c-10 11 -32 18 -45 18c-63 0 -96 -34 -96 -159v-303h-94z" />
    <glyph glyph-name="A" unicode="A" horiz-adv-x="598" 
d="M10 0l200 700h103l200 -700h-104l-35 130h-225l-35 -130h-104zM261 524l-85 -295h171c-18 63 -38 127 -86 295z" />
    <glyph glyph-name="D" unicode="D" horiz-adv-x="578" 
d="M141 601v-503h98c111 4 128 97 128 252c0 153 -17 251 -128 251h-98zM40 0v700h199c198 0 229 -156 229 -350s-31 -350 -229 -350h-199z" />
    <glyph glyph-name="t" unicode="t" horiz-adv-x="390" 
d="M30 458v92h73v108h94v-108h106v-92h-106v-265c0 -70 4 -105 29 -105c14 0 21 7 27 16l57 -72c-37 -30 -61 -37 -94 -37c-113 0 -113 94 -113 198v265h-73z" />
    <glyph glyph-name="h" unicode="h" horiz-adv-x="552" 
d="M60 0v731h95v-211c25 22 59 35 109 35c144 0 188 -76 188 -244v-311h-95v303c0 107 -16 159 -93 159c-62 0 -109 -34 -109 -159v-303h-95z" />
    <glyph glyph-name="l" unicode="l" horiz-adv-x="289" 
d="M40 167v564h94v-564c0 -62 -1 -79 17 -79c10 0 18 9 24 17l54 -69c-40 -41 -80 -41 -95 -41c-94 0 -94 63 -94 172z" />
    <glyph glyph-name="a" unicode="a" horiz-adv-x="509" 
d="M405 357v-271c4 -51 4 -77 4 -86h-94l-1 23c-22 -14 -54 -28 -95 -28c-140 0 -179 94 -179 172c0 87 64 179 189 179c32 0 60 -7 82 -16v27c0 92 -63 105 -92 105c-28 0 -68 -20 -90 -59l-78 54c44 60 102 98 168 98c67 0 186 -29 186 -198zM229 253
c-58 0 -95 -40 -95 -86c0 -41 19 -79 85 -79c36 0 71 12 92 38v112c-20 8 -43 15 -82 15z" />
    <glyph glyph-name="j" unicode="j" horiz-adv-x="268" 
d="M174 -33v583h-95v-583c0 -71 -10 -105 -38 -105c-17 0 -30 8 -51 30l-50 -64c36 -39 77 -59 111 -59c123 0 123 94 123 198zM183 702c0 -32 -25 -58 -55 -58c-32 0 -57 26 -57 58c0 33 25 58 57 58c30 0 55 -25 55 -58z" />
    <glyph glyph-name="i" unicode="i" horiz-adv-x="242" 
d="M38 0h95v550h-95v-550zM142 702c0 -32 -25 -58 -55 -58c-32 0 -57 26 -57 58c0 33 25 58 57 58c30 0 55 -25 55 -58z" />
    <glyph glyph-name="g" unicode="g" horiz-adv-x="528" 
d="M340 275c0 48 3 187 -100 187c-99 0 -103 -135 -103 -187c0 -43 4 -187 103 -187c103 0 100 139 100 187zM438 550l-7 -88c0 -125 1 -338 1 -463c0 -144 -89 -200 -187 -200c-72 0 -125 44 -168 98l82 56c25 -42 61 -61 86 -61c54 0 92 33 92 105v32
c-30 -23 -64 -34 -100 -34c-181 0 -197 200 -197 280s14 280 197 280c45 0 77 -14 100 -33l2 28h99z" />
    <glyph glyph-name="f" unicode="f" horiz-adv-x="331" 
d="M10 550h48v11c0 126 59 175 131 175c49 0 85 -40 102 -62l-61 -61c-13 17 -25 30 -41 30c-18 0 -37 -11 -37 -82v-11h111v-92h-111v-458h-94v458h-48v92z" />
    <glyph glyph-name="z" unicode="z" horiz-adv-x="471" 
d="M30 458v92h371v-76l-244 -382h244v-92h-371v76l246 382h-246z" />
    <glyph glyph-name="v" unicode="v" horiz-adv-x="452" 
d="M397 550l-158 -550h-90l-159 550h99l105 -368c56 196 83 288 105 368h98z" />
    <glyph glyph-name="w" unicode="w" horiz-adv-x="683" 
d="M633 550l-138 -550h-91l-87 344c-42 -158 -68 -258 -89 -344h-89l-139 550h97l87 -357c28 118 59 241 86 357h93l86 -358c29 118 59 242 87 358h97z" />
    <glyph glyph-name="k" unicode="k" horiz-adv-x="501" 
d="M135 0h-95v731h95v-378l180 197h126l-198 -219l183 -331h-105l-144 257l-42 -45v-212z" />
    <glyph glyph-name="x" unicode="x" horiz-adv-x="512" 
d="M282 277l170 -277h-109l-118 190l-115 -190h-110l170 275c-51 84 -121 194 -170 275h110l115 -190c40 62 78 128 118 190h109z" />
    <glyph glyph-name="y" unicode="y" horiz-adv-x="494" 
d="M404 550l-176 -594c-26 -83 -70 -106 -107 -106c-34 0 -73 35 -84 53l36 67c17 -16 28 -21 44 -21c26 0 36 71 40 86l-157 515h95l107 -354l103 354h99z" />
    <glyph glyph-name="e" unicode="e" horiz-adv-x="506" 
d="M318 206h94c0 -120 -64 -211 -190 -211c-159 0 -197 124 -197 280c0 161 49 280 197 280c149 0 194 -121 194 -243v-46h-297c3 -104 28 -178 103 -178c72 0 96 57 96 118zM222 462c-67 0 -97 -49 -102 -124h204c-5 75 -35 124 -102 124z" />
    <glyph glyph-name="s" unicode="s" horiz-adv-x="469" 
d="M20 184h94c0 -54 29 -96 94 -96c66 0 75 44 75 65c0 46 -49 63 -99 79c-71 22 -157 56 -157 167c0 44 34 156 175 156c138 0 170 -116 170 -175h-94c0 53 -28 82 -76 82c-53 0 -80 -28 -80 -63c0 -48 51 -65 101 -81c71 -22 156 -60 156 -165c0 -68 -46 -158 -171 -158
c-174 0 -188 162 -188 189z" />
    <glyph glyph-name="period" unicode="." horiz-adv-x="250" 
d="M170 68c0 -41 -30 -73 -69 -73c-41 0 -71 32 -71 73c0 42 30 73 71 73c39 0 69 -31 69 -73z" />
    <glyph glyph-name="comma" unicode="," horiz-adv-x="277" 
d="M20 -105v73c23 10 50 29 42 37c-22 14 -34 37 -34 63c0 42 29 73 69 73c31 0 56 -19 66 -48c18 -49 -26 -156 -143 -198z" />
    <glyph glyph-name="semicolon" unicode=";" horiz-adv-x="241" 
d="M177 350c0 -41 -29 -73 -70 -73c-39 0 -69 32 -69 73c0 42 30 73 69 73c41 0 70 -31 70 -73zM30 -105v73c23 10 49 30 41 39c-20 13 -33 35 -33 61c0 42 30 73 69 73c31 0 55 -20 66 -48c18 -49 -26 -156 -143 -198z" />
    <glyph glyph-name="colon" unicode=":" horiz-adv-x="280" 
d="M170 68c0 -41 -30 -73 -70 -73s-70 32 -70 73c0 42 30 73 70 73s70 -31 70 -73zM170 350c0 -41 -30 -73 -70 -73s-70 32 -70 73c0 42 30 73 70 73s70 -31 70 -73z" />
    <glyph glyph-name="question" unicode="?" horiz-adv-x="526" 
d="M237 186h-100c0 146 60 173 115 208c39 24 74 45 74 108c0 48 -23 104 -90 104c-68 0 -96 -48 -96 -99v-45h-100v45c0 74 44 198 196 198c154 0 190 -131 190 -203c0 -109 -52 -144 -103 -181c-44 -30 -86 -49 -86 -135zM246 58c0 -36 -25 -63 -59 -63s-59 27 -59 63
c0 35 25 62 59 62s59 -27 59 -62z" />
    <glyph glyph-name="hyphen" unicode="-" horiz-adv-x="540" 
d="M50 259v99h360v-99h-360z" />
    <glyph glyph-name="equal" unicode="=" horiz-adv-x="503" 
d="M50 291v99h323v-99h-323zM50 143v99h323v-99h-323z" />
    <glyph glyph-name="plus" unicode="+" horiz-adv-x="505" 
d="M162 473h101v-115h112v-99h-112v-116h-101v116h-112v99h112v115z" />
    <glyph glyph-name="endash" unicode="&#x2013;" horiz-adv-x="525" 
d="M37 259v99h360v-99h-360z" />
    <glyph glyph-name="emdash" unicode="&#x2014;" horiz-adv-x="779" 
d="M48 259v99h601v-99h-601z" />
    <glyph glyph-name="exclam" unicode="!" horiz-adv-x="238" 
d="M49 174v526h101v-526h-101zM158 58c0 -36 -25 -63 -59 -63s-59 27 -59 63c0 35 25 62 59 62s59 -27 59 -62z" />
    <glyph glyph-name="dollar" unicode="$" horiz-adv-x="589" 
d="M299 -96h-86v94c-183 19 -183 171 -183 199v45h100v-45c0 -55 33 -103 127 -103c89 0 101 58 101 86c0 64 -62 89 -128 114c-92 36 -191 74 -191 217c0 51 19 178 174 192v90h86v-93c127 -26 150 -145 150 -193v-45h-101v45c0 55 -32 99 -100 99c-65 0 -108 -38 -108 -95
c0 -68 64 -94 131 -119c92 -34 188 -72 188 -212c0 -76 -45 -163 -160 -182v-94z" />
    <glyph glyph-name="nine" unicode="9" horiz-adv-x="491" 
d="M401 493c0 -36 -6 -76 -20 -108l-173 -385h-109l127 282h-13c-151 0 -193 117 -193 211s43 212 193 212c151 0 188 -118 188 -212zM300 493c0 37 -6 113 -87 113c-83 0 -92 -76 -92 -113c0 -36 9 -112 92 -112c81 0 87 76 87 112z" />
    <glyph glyph-name="eight" unicode="8" horiz-adv-x="522" 
d="M414 512c0 -31 -10 -95 -48 -139c63 -53 66 -137 66 -166c0 -43 -13 -212 -201 -212c-186 0 -201 169 -201 212c0 29 5 112 68 166c-40 44 -49 108 -49 139c0 51 26 193 182 193c157 0 183 -142 183 -193zM332 207c0 20 -21 99 -94 112h-12c-83 -8 -95 -91 -95 -112
c0 -22 7 -113 100 -113c95 0 101 91 101 113zM313 512c0 36 -13 94 -82 94c-68 0 -81 -58 -81 -94c0 -37 13 -94 81 -94c69 0 82 57 82 94z" />
    <glyph glyph-name="seven" unicode="7" horiz-adv-x="469" 
d="M20 601v99h379v-76l-230 -624h-104l223 601h-268z" />
    <glyph glyph-name="six" unicode="6" horiz-adv-x="491" 
d="M20 207c0 35 5 74 21 108c57 126 116 259 173 385h108l-127 -282h15c150 0 191 -117 191 -211c0 -95 -42 -212 -191 -212c-151 0 -190 117 -190 212zM121 207c0 -36 7 -113 89 -113s90 77 90 113c0 35 -8 112 -90 112c-80 0 -89 -77 -89 -112z" />
    <glyph glyph-name="four" unicode="4" horiz-adv-x="519" 
d="M40 142v80l239 478h111l-231 -459h114v137h101v-137h55v-99h-55v-142h-101v142h-233z" />
    <glyph glyph-name="three" unicode="3" horiz-adv-x="475" 
d="M30 210h100c0 -76 27 -116 93 -116c63 0 85 49 85 101c0 46 -8 104 -67 104h-55v108h55c59 0 67 55 67 99c0 54 -24 100 -85 100c-64 0 -94 -35 -94 -116h-99c0 159 82 215 193 215c109 0 182 -81 182 -199c0 -69 -24 -123 -56 -154c32 -32 56 -91 56 -157
c0 -133 -73 -200 -182 -200c-111 0 -193 54 -193 215z" />
    <glyph glyph-name="zero" unicode="0" horiz-adv-x="488" 
d="M120 350c0 -142 0 -256 88 -256s89 114 89 256s0 256 -89 256c-88 0 -88 -114 -88 -256zM20 350c0 165 0 355 188 355c190 0 190 -190 190 -355s0 -355 -190 -355c-188 0 -188 190 -188 355z" />
    <glyph glyph-name="one" unicode="1" horiz-adv-x="326" 
d="M30 500v131l86 69h85v-700h-100v557z" />
    <glyph glyph-name="five" unicode="5" horiz-adv-x="531" 
d="M60 196h101c0 -46 24 -102 89 -102c69 0 90 62 90 141c0 73 -21 139 -90 139c-64 0 -89 -53 -89 -83h-101v409h317v-99h-216v-174c20 29 61 43 89 46c90 10 191 -55 191 -238c0 -181 -99 -240 -191 -240c-100 0 -190 64 -190 201z" />
    <glyph glyph-name="parenleft" unicode="(" horiz-adv-x="362" 
d="M252 30v-81c-212 0 -212 238 -212 401s0 401 212 401v-81c-111 0 -111 -158 -111 -320c0 -163 0 -320 111 -320z" />
    <glyph glyph-name="parenright" unicode=")" horiz-adv-x="401" 
d="M80 -51v81c111 0 111 157 111 320c0 162 0 320 -111 320v81c211 0 211 -238 211 -401s0 -401 -211 -401z" />
    <glyph glyph-name="bar" unicode="|" horiz-adv-x="237" 
d="M137 -92h-87v930h87v-930z" />
    <glyph glyph-name="quotesinglbase" unicode="&#x201a;" horiz-adv-x="304" 
d="M40 505v73c23 9 51 28 43 35c-21 16 -36 37 -36 64c0 42 30 74 71 74c31 0 56 -20 65 -49c19 -51 -27 -157 -143 -197z" />
    <glyph glyph-name="quoteright" unicode="&#x2019;" horiz-adv-x="270" 
d="M47 505v73c21 8 46 27 41 35c-21 16 -34 37 -34 64c0 42 30 74 70 74c31 0 56 -20 65 -48c19 -51 -26 -158 -142 -198z" />
    <glyph glyph-name="quoteleft" unicode="&#x2018;" horiz-adv-x="268" 
d="M173 756v-73c-23 -9 -48 -28 -45 -35c21 -12 38 -37 38 -65c0 -42 -30 -73 -70 -73c-30 0 -56 20 -66 48c-18 49 27 156 143 198z" />
    <glyph glyph-name="_0129" horiz-adv-x="0" 
 />
    <glyph glyph-name="quotedblleft" unicode="&#x201c;" horiz-adv-x="505" 
d="M385 756v-73c-24 -10 -51 -30 -44 -36c21 -11 37 -37 37 -64c0 -42 -30 -73 -70 -73c-30 0 -56 20 -66 48c-18 49 27 156 143 198zM213 756v-73c-24 -10 -51 -30 -45 -36c21 -11 38 -37 38 -64c0 -42 -30 -73 -70 -73c-30 0 -56 20 -67 48c-17 49 28 156 144 198z" />
    <glyph glyph-name="quotedblright" unicode="&#x201d;" horiz-adv-x="500" 
d="M60 505v73c23 9 51 28 43 35c-21 16 -35 37 -35 64c0 42 29 74 70 74c32 0 57 -20 65 -49c18 -50 -27 -157 -143 -197zM232 505v73c23 9 51 28 44 35c-22 16 -36 37 -36 64c0 42 30 74 70 74c32 0 57 -20 66 -49c18 -50 -27 -157 -144 -197z" />
    <glyph glyph-name="quotedblbase" unicode="&#x201e;" horiz-adv-x="514" 
d="M45 505v73c23 9 51 28 43 35c-21 16 -35 37 -35 64c0 42 29 74 70 74c32 0 57 -20 65 -49c18 -50 -27 -157 -143 -197zM207 505v73c23 9 51 28 44 35c-22 16 -36 37 -36 64c0 42 30 74 70 74c32 0 57 -20 66 -49c18 -50 -27 -157 -144 -197z" />
    <glyph glyph-name="quotesingle" unicode="'" horiz-adv-x="231" 
d="M40 505v73c24 9 51 28 43 35c-22 15 -35 37 -35 64c0 42 30 74 69 74c31 0 56 -19 66 -48c18 -51 -26 -158 -143 -198z" />
    <glyph glyph-name="_0020" horiz-adv-x="0" 
 />
    <glyph glyph-name="quotedbl" unicode="&#x22;" horiz-adv-x="484" 
d="M90 505v73c23 9 51 28 43 35c-21 16 -35 37 -35 64c0 42 29 74 70 74c32 0 57 -20 65 -49c19 -51 -27 -157 -143 -197zM292 505v73c23 9 51 28 44 35c-22 16 -36 37 -36 64c0 42 30 74 70 74c32 0 57 -20 66 -49c19 -51 -27 -157 -144 -197z" />
    <glyph glyph-name="two" unicode="2" horiz-adv-x="538" 
d="M418 99v-99h-378v73c0 81 63 139 132 202c70 63 145 133 145 224c0 37 -10 107 -89 107c-75 0 -88 -78 -88 -132h-100c0 102 44 231 188 231c161 0 190 -135 190 -206c0 -138 -94 -222 -175 -294v1c-43 -38 -83 -74 -97 -107h272z" />
    <glyph glyph-name="yen" unicode="&#xa5;" horiz-adv-x="502" 
d="M373 57h-88v-57h-101v57h-89v99h82v33h-82v99h61l-156 412h103l132 -337l130 337h104l-156 -412h60v-99h-81v-33h81v-99z" />
    <glyph glyph-name="degree" unicode="&#xb0;" horiz-adv-x="447" 
d="M241 586c0 35 -14 66 -56 66s-59 -31 -59 -66c0 -36 17 -67 59 -67s56 31 56 67zM337 586c0 -67 -40 -161 -152 -161s-155 94 -155 161s43 160 155 160s152 -93 152 -160z" />
    <glyph glyph-name="ordmasculine" unicode="&#xba;" horiz-adv-x="444" 
d="M233 586c0 35 -14 66 -56 66s-59 -31 -59 -66c0 -36 17 -67 59 -67s56 31 56 67zM329 586c0 -67 -40 -161 -152 -161s-155 94 -155 161s43 160 155 160s152 -93 152 -160z" />
    <glyph glyph-name="bullet" unicode="&#x2022;" horiz-adv-x="434" 
d="M273 302c0 -43 -26 -105 -98 -105c-71 0 -99 62 -99 105s28 104 99 104c72 0 98 -61 98 -104z" />
    <glyph glyph-name="slash" unicode="/" horiz-adv-x="465" 
d="M-10 -46l321 792h104l-319 -792h-106z" />
    <glyph glyph-name="backslash" unicode="\" horiz-adv-x="545" 
d="M135 746l320 -792h-106l-319 792h105z" />
    <glyph glyph-name="percent" unicode="%" horiz-adv-x="849" 
d="M149 -46l320 792h105l-320 -792h-105zM251 586c0 35 -14 66 -56 66s-59 -31 -59 -66c0 -36 17 -67 59 -67s56 31 56 67zM347 586c0 -67 -41 -161 -152 -161s-155 94 -155 161s44 160 155 160s152 -93 152 -160zM603 156c0 35 -13 66 -56 66c-42 0 -58 -31 -58 -66
c0 -36 16 -67 58 -67c43 0 56 31 56 67zM699 156c0 -67 -40 -161 -152 -161c-111 0 -155 94 -155 161s44 160 155 160c112 0 152 -93 152 -160z" />
    <glyph glyph-name="fraction" unicode="&#x2044;" horiz-adv-x="442" 
d="M-30 -46l321 792h104l-319 -792h-106z" />
    <glyph glyph-name="numbersign" unicode="#" horiz-adv-x="972" 
d="M405 0l75 184h-170l-74 -184h-106l74 184h-154v99h193c20 47 36 84 55 134h-137v99h177l75 184h103l-74 -184h172l75 184h102l-72 -184h153v-99h-193c-19 -47 -36 -84 -55 -134h137v-99h-175l-74 -184h-107zM403 417l-54 -134h171l53 134h-170z" />
    <glyph glyph-name="bracketleft" unicode="[" horiz-adv-x="355" 
d="M40 -46v792h185v-99h-85v-594h85v-99h-185z" />
    <glyph glyph-name="bracketright" unicode="]" horiz-adv-x="345" 
d="M164 53v594h-84v99h185v-792h-185v99h84z" />
    <glyph glyph-name="Euro" unicode="&#x20ac;" horiz-adv-x="498" 
d="M30 349v99h30c1 134 40 257 207 257c30 0 82 -17 111 -42l-36 -83c-13 11 -46 26 -75 26c-86 0 -106 -56 -106 -158h147v-99h-147v-43h147v-99h-146c6 -80 28 -113 105 -113c31 0 58 16 75 26l36 -83c-25 -21 -67 -42 -111 -42c-150 0 -192 80 -204 212h-33v99h30v43h-30
z" />
    <glyph glyph-name="onequarter" unicode="&#xbc;" horiz-adv-x="738" 
d="M150 -46l320 792h77l-319 -792h-78zM139 600v66l43 34h42v-349h-50v278zM407 97v40l119 238h55l-115 -229h57v68h50v-68h27v-49h-27v-71h-50v71h-116z" />
    <glyph glyph-name="onehalf" unicode="&#xbd;" horiz-adv-x="829" 
d="M160 -46l320 792h77l-319 -792h-78zM149 600v65l43 35h42v-351h-50v279zM641 76v-50h-189v37c0 40 31 69 66 101c35 31 72 66 72 112c0 18 -5 53 -44 53c-38 0 -44 -39 -44 -66h-50c0 51 22 116 94 116c80 0 95 -68 95 -103c0 -69 -47 -111 -88 -147v0
c-21 -19 -41 -37 -48 -53h136z" />
    <glyph glyph-name="minus" unicode="&#x2212;" horiz-adv-x="462" 
d="M-13 259v99h360v-99h-360z" />
    <glyph glyph-name="plusminus" unicode="&#xb1;" horiz-adv-x="408" 
d="M115 627h101v-115h113v-99h-113v-116h-101v116h-111v99h111v115zM4 127v99h325v-99h-325z" />
    <glyph glyph-name="cent" unicode="&#xa2;" horiz-adv-x="511" 
d="M282 -106h-87v105c-113 29 -163 146 -163 282c0 145 28 261 163 281v106h87v-106c82 -19 141 -94 141 -211h-94c0 86 -38 119 -89 120c-83 1 -111 -60 -111 -190s28 -192 111 -192c51 0 88 40 88 121h95c0 -123 -59 -193 -141 -210v-106z" />
    <glyph glyph-name="ampersand" unicode="&#x26;" horiz-adv-x="632" 
d="M532 0h-116l-42 62c-28 -28 -73 -62 -140 -67c-116 -8 -198 73 -203 188c-4 104 51 179 124 225c-29 51 -49 82 -49 128c0 113 82 169 163 169c80 0 159 -58 159 -160c0 -91 -76 -139 -134 -176l88 -131c36 41 81 62 126 62v-104c-35 0 -61 -25 -75 -45
c30 -44 71 -110 99 -151zM230 94c43 3 75 33 91 53l-109 172c-43 -27 -86 -64 -81 -132c2 -49 37 -98 99 -93zM206 536c0 -24 17 -55 33 -79c32 19 88 54 88 88c0 37 -27 61 -58 61c-33 0 -63 -30 -63 -70z" />
    <glyph glyph-name="twosuperior" unicode="&#xb2;" horiz-adv-x="265" 
d="M197 453v-49h-188v36c0 41 31 70 66 101c34 31 72 66 72 111c0 19 -5 54 -45 54c-37 0 -43 -39 -43 -66h-50c0 51 22 115 93 115c80 0 95 -67 95 -103c0 -68 -47 -110 -87 -146v1c-22 -19 -41 -37 -48 -54h135z" />
    <glyph glyph-name="threesuperior" unicode="&#xb3;" horiz-adv-x="269" 
d="M9 507h50c0 -39 14 -59 47 -59c32 0 43 25 43 51c0 23 -4 52 -34 52h-27v55h27c30 0 34 27 34 49c0 28 -12 51 -43 51c-32 0 -47 -18 -47 -59h-50c0 80 41 108 97 108c55 0 92 -40 92 -100c0 -34 -12 -61 -29 -77c17 -16 29 -46 29 -79c0 -67 -37 -101 -92 -101
c-56 0 -97 28 -97 109z" />
    <glyph glyph-name="multiply" unicode="&#xd7;" horiz-adv-x="436" 
d="M231 297l135 -216h-112l-79 130l-80 -130h-112l136 216c-41 67 -95 153 -136 219h111l81 -134c25 43 53 93 78 134h112z" />
    <glyph glyph-name="asterisk" unicode="*" horiz-adv-x="443" 
d="M249 641l89 52l45 -76l-88 -52c50 -28 75 -41 87 -49l-44 -78l-89 51v-103h-84v103l-89 -51l-45 78l86 49l-87 52l46 75l89 -50v104h84v-105z" />
    <glyph glyph-name="ordfeminine" unicode="&#xaa;" horiz-adv-x="259" 
d="M204 656v-136c2 -25 2 -38 2 -43h-47l-1 12c-11 -7 -27 -15 -47 -15c-70 0 -90 48 -90 87c0 43 32 90 95 90c16 0 30 -4 41 -8v13c0 46 -32 53 -46 53s-34 -10 -45 -30l-39 27c22 30 51 49 84 49s93 -14 93 -99zM116 604c-29 0 -48 -20 -48 -43c0 -21 10 -40 43 -40
c18 0 35 6 46 19v56c-10 4 -22 8 -41 8z" />
    <glyph glyph-name="threequarters" unicode="&#xbe;" horiz-adv-x="702" 
d="M117 -46l321 792h76l-319 -792h-78zM116 458h-50c0 -81 41 -108 96 -108s91 34 91 100c0 33 -12 63 -28 79c16 15 28 42 28 77c0 59 -36 99 -91 99s-96 -28 -96 -107h49c0 40 15 58 47 58c31 0 43 -23 43 -50c0 -22 -4 -50 -34 -50h-27v-54h27c30 0 34 -29 34 -52
c0 -26 -11 -50 -43 -50c-33 0 -46 20 -46 58zM373 97v40l119 239h56l-116 -230h57v69h51v-69h27v-49h-27v-71h-51v71h-116z" />
    <glyph glyph-name="ellipsis" unicode="&#x2026;" horiz-adv-x="668" 
d="M155 68c0 -41 -30 -73 -70 -73s-70 32 -70 73c0 42 30 73 70 73s70 -31 70 -73zM319 68c0 -41 -30 -73 -69 -73c-41 0 -70 32 -70 73c0 42 29 73 70 73c39 0 69 -31 69 -73zM483 68c0 -41 -29 -73 -69 -73s-70 32 -70 73c0 42 30 73 70 73s69 -31 69 -73z" />
    <glyph glyph-name="dieresis" unicode="&#xa8;" horiz-adv-x="470" 
d="M50 822c0 34 25 60 58 60c34 0 59 -26 59 -60c0 -35 -25 -62 -59 -62c-33 0 -58 27 -58 62zM219 822c0 34 24 60 58 60c33 0 58 -26 58 -60c0 -35 -25 -62 -58 -62c-34 0 -58 27 -58 62z" />
    <glyph glyph-name="acute" unicode="&#xb4;" 
d="M227 732h-115l99 180h114z" />
    <glyph glyph-name="grave" unicode="`" 
d="M159 912h115l98 -180h-114z" />
    <glyph glyph-name="circumflex" unicode="&#x2c6;" 
d="M223 732h-102l91 180h80l91 -180h-103l-29 54z" />
    <glyph glyph-name="onesuperior" unicode="&#xb9;" horiz-adv-x="202" 
d="M8 650v65l43 35h42v-350h-50v278z" />
    <glyph glyph-name="currency" unicode="&#xa4;" 
 />
    <glyph glyph-name="fi" unicode="&#xfb01;" horiz-adv-x="601" 
d="M5 550h48v11c0 126 59 175 131 175c49 0 85 -40 102 -62l-59 -60c-12 17 -23 29 -43 29c-18 0 -37 -14 -37 -82v-11h138v-550h-94v458h-44v-458h-94v458h-48v92z" />
    <glyph glyph-name="exclamdown" unicode="&#xa1;" horiz-adv-x="204" 
d="M12 -250v526h101v-526h-101zM121 392c0 -35 -25 -62 -59 -62s-59 27 -59 62c0 36 25 63 59 63s59 -27 59 -63z" />
    <glyph glyph-name="questiondown" unicode="&#xbf;" horiz-adv-x="537" 
d="M268 264h100c0 -146 -60 -173 -115 -208c-39 -24 -74 -45 -74 -108c0 -48 23 -104 90 -104c68 0 96 48 96 99v45h100v-45c0 -74 -44 -198 -196 -198c-154 0 -190 131 -190 203c0 109 52 144 103 181c44 30 86 49 86 135zM259 392c0 36 25 63 59 63s59 -27 59 -63
c0 -35 -25 -62 -59 -62s-59 27 -59 62z" />
    <glyph glyph-name="logicalnot" unicode="&#xac;" 
 />
    <glyph glyph-name="trademark" unicode="&#x2122;" horiz-adv-x="1061" 
d="M291 390v376h71l85 -247c12 36 25 72 85 247h71v-376h-73v154l-55 -154h-57l-54 152v-152h-73zM65 690v76h193v-76h-60v-300h-73v300h-60z" />
    <glyph glyph-name="at" unicode="@" horiz-adv-x="814" 
d="M674 137c-35 -107 -150 -194 -299 -187c-258 12 -365 224 -365 400c0 203 122 400 375 400c269 0 366 -226 347 -400c-21 -195 -161 -258 -226 -246c-40 7 -58 49 -59 68c-23 -29 -50 -52 -109 -52c-126 0 -156 134 -149 226c4 63 33 229 187 224c32 -1 57 -13 64 -19
l4 22h87l-33 -305c-17 -117 128 -78 148 78c17 130 -41 317 -261 317c-168 0 -280 -132 -280 -313c0 -139 53 -303 300 -313c46 -2 144 0 269 100zM414 346c10 91 12 139 -47 142c-61 3 -78 -71 -87 -144c-10 -78 4 -136 49 -142c67 -9 74 42 85 144z" />
    <glyph glyph-name="underscore" unicode="_" horiz-adv-x="641" 
d="M0 -42v89h601v-89h-601z" />
    <glyph glyph-name="tilde" unicode="&#x2dc;" 
d="M173 736v105c35 20 62 30 82 30c25 0 48 -10 72 -22c17 -11 34 -16 50 -16c14 0 40 12 82 35v-104c-35 -20 -61 -30 -80 -30c-24 0 -48 8 -73 21c-17 7 -35 15 -53 15c-14 0 -39 -10 -80 -34z" />
    <glyph glyph-name="dagger" unicode="&#x2020;" horiz-adv-x="228" 
d="M138 -92h-86v351h-136v99h136v480h86v-480h139v-99h-139v-351z" />
    <glyph glyph-name="daggerdbl" unicode="&#x2021;" horiz-adv-x="487" 
d="M240 -92h-86v235h-118v99h118v49h-118v99h118v448h86v-448h120v-99h-120v-49h120v-99h-120v-235z" />
    <glyph glyph-name="guilsinglleft" unicode="&#x2039;" horiz-adv-x="529" 
d="M177 291l176 -271h-117l-175 271l175 271h117z" />
    <glyph glyph-name="guillemotleft" unicode="&#xab;" horiz-adv-x="657" 
d="M166 291l176 -271h-117l-175 271l175 271h117zM372 291l175 -271h-117l-175 271l175 271h117z" />
    <glyph glyph-name="guillemotright" unicode="&#xbb;" horiz-adv-x="717" 
d="M315 20l175 271l-175 271h117l175 -271l-175 -271h-117zM110 20l175 271l-175 271h117l175 -271l-175 -271h-117z" />
    <glyph glyph-name="guilsinglright" unicode="&#x203a;" horiz-adv-x="562" 
d="M132 20l175 271c-55 86 -121 185 -175 271h118l175 -271l-175 -271h-118z" />
    <glyph glyph-name="less" unicode="&#x3c;" horiz-adv-x="442" 
d="M156 281l176 -281h-117l-175 281l175 281h117z" />
    <glyph glyph-name="greater" unicode="&#x3e;" horiz-adv-x="512" 
d="M110 0l175 281l-175 281h117l175 -281l-175 -281h-117z" />
    <glyph glyph-name="asciitilde" unicode="~" horiz-adv-x="458" 
d="M0 274v105c62 38 135 36 206 9s128 -19 172 20v-105c-46 -47 -133 -39 -195 -12s-140 19 -183 -17z" />
    <glyph glyph-name="asciicircum" unicode="^" horiz-adv-x="443" 
d="M162 732h-103l91 180h80l91 -180h-103l-28 54z" />
    <glyph glyph-name="cedilla" unicode="&#xb8;" 
d="M372 -127h50c0 -3 1 -16 12 -16s13 17 13 31c0 13 -2 30 -13 30s-12 -13 -12 -17h-50c0 18 1 32 31 112h52l-17 -44c53 6 81 -29 81 -81c0 -58 -33 -89 -82 -89s-65 41 -65 74z" />
    <glyph glyph-name="braceleft" unicode="{" horiz-adv-x="381" 
d="M251 30v-81c-160 0 -176 108 -176 235c0 76 1 84 1 92c0 11 -18 29 -36 29v90c18 0 36 16 36 29v91c0 128 16 236 175 236v-81c-66 0 -78 -39 -78 -100c3 -85 4 -119 4 -146c0 -21 2 -54 -13 -76c15 -23 13 -55 13 -72c-3 -113 -4 -129 -4 -146c0 -61 12 -100 78 -100z
" />
    <glyph glyph-name="braceright" unicode="}" horiz-adv-x="401" 
d="M80 -51v81c66 0 78 39 78 100c-3 84 -4 119 -4 146c0 17 -2 49 13 72c-15 22 -13 55 -13 76c3 110 4 129 4 146c0 61 -12 100 -78 100v81c159 0 175 -108 175 -236v-91c0 -13 17 -29 36 -29v-90c-19 0 -36 -18 -36 -29v-92c0 -127 -15 -235 -175 -235z" />
    <glyph glyph-name="divide" unicode="&#xf7;" horiz-adv-x="465" 
d="M280 166c0 -41 -30 -73 -70 -73s-70 32 -70 73c0 42 30 73 70 73s70 -31 70 -73zM280 448c0 -41 -30 -73 -70 -73s-70 32 -70 73c0 42 30 73 70 73s70 -31 70 -73zM31 259v99h360v-99h-360z" />
    <glyph glyph-name="sterling" unicode="&#xa3;" horiz-adv-x="518" 
d="M30 240v99h47c-5 25 -13 52 -29 116v-1c-6 22 -10 47 -10 76c0 87 43 175 180 175c161 0 170 -161 170 -196h-100c0 32 -5 97 -70 97c-56 0 -79 -31 -79 -77c0 -18 3 -38 43 -190h171v-99h-153c3 -21 4 -47 4 -66c0 -28 -3 -52 -10 -75h194v-99h-358v99c50 0 69 31 69 79
c0 18 -1 39 -4 62h-65z" />
    <glyph glyph-name="caron" unicode="&#x2c7;" 
d="M181 912h102l28 -55c11 19 21 38 29 55h103l-91 -180h-80z" />
    <glyph glyph-name="Zcaron" unicode="&#x17d;" horiz-adv-x="523" 
d="M30 601v99h398v-80l-273 -521h273v-99h-398v81l273 520h-273zM105 952h102l28 -55c11 19 21 38 29 55h103l-91 -180h-80z" />
    <glyph glyph-name="zcaron" unicode="&#x17e;" horiz-adv-x="471" 
d="M40 550v-92h246l-246 -382v-76h371v92h-244l244 382v76h-371zM95 792h102l28 -55c11 19 21 38 29 55h103l-91 -180h-80z" />
    <glyph glyph-name="Scaron" unicode="&#x160;" horiz-adv-x="534" 
d="M20 197v45h100v-45c0 -55 33 -103 127 -103c89 0 101 58 101 86c0 64 -62 89 -128 114c-92 36 -191 74 -191 217c0 54 31 194 209 194c172 0 201 -145 201 -198v-45h-101v45c0 55 -32 99 -100 99c-65 0 -108 -38 -108 -95c0 -68 64 -94 131 -119c92 -34 188 -72 188 -212
c0 -88 -46 -185 -202 -185c-223 0 -227 173 -227 202zM109 952h102l28 -55c11 19 21 38 29 55h103l-91 -180h-80z" />
    <glyph glyph-name="scaron" unicode="&#x161;" horiz-adv-x="459" 
d="M20 184h94c0 -54 29 -96 94 -96c66 0 75 44 75 65c0 46 -49 63 -99 79c-71 22 -157 56 -157 167c0 44 34 156 175 156c138 0 170 -116 170 -175h-94c0 53 -28 82 -76 82c-53 0 -80 -28 -80 -63c0 -48 51 -65 101 -81c71 -22 156 -60 156 -165c0 -68 -46 -158 -171 -158
c-174 0 -188 162 -188 189zM76 792h102l28 -55c11 19 21 38 29 55h103l-91 -180h-80z" />
    <glyph glyph-name="Ydieresis" unicode="&#x178;" horiz-adv-x="512" 
d="M176 0v232l-186 468h105l132 -329c29 75 58 148 132 329h103l-185 -468v-232h-101zM85 862c0 34 25 60 58 60c34 0 59 -26 59 -60c0 -35 -25 -62 -59 -62c-33 0 -58 27 -58 62zM254 862c0 34 24 60 58 60c33 0 58 -26 58 -60c0 -35 -25 -62 -58 -62c-34 0 -58 27 -58 62z
" />
    <glyph glyph-name="Agrave" unicode="&#xc0;" horiz-adv-x="563" 
d="M0 0l200 700h103l200 -700h-104l-35 130h-225l-35 -130h-104zM251 524l-85 -295h171c-18 63 -38 127 -86 295zM96 952h115l98 -180h-114z" />
    <glyph glyph-name="Aacute" unicode="&#xc1;" horiz-adv-x="563" 
d="M0 0l200 700h103l200 -700h-104l-35 130h-225l-35 -130h-104zM251 524l-85 -295h171c-18 63 -38 127 -86 295zM311 772h-115l99 180h114z" />
    <glyph glyph-name="Acircumflex" unicode="&#xc2;" horiz-adv-x="563" 
d="M0 0l200 700h103l200 -700h-104l-35 130h-225l-35 -130h-104zM251 524l-85 -295h171c-18 63 -38 127 -86 295zM223 772h-102l91 180h80l91 -180h-103l-29 54z" />
    <glyph glyph-name="Atilde" unicode="&#xc3;" horiz-adv-x="563" 
d="M0 0l200 700h103l200 -700h-104l-35 130h-225l-35 -130h-104zM251 524l-85 -295h171c-18 63 -38 127 -86 295zM109 776v105c35 20 62 30 82 30c25 0 48 -10 72 -22c17 -11 34 -16 50 -16c14 0 40 12 82 35v-104c-35 -20 -61 -30 -80 -30c-24 0 -48 8 -73 21
c-17 7 -35 15 -53 15c-14 0 -39 -10 -80 -34z" />
    <glyph glyph-name="Adieresis" unicode="&#xc4;" horiz-adv-x="563" 
d="M0 0l200 700h103l200 -700h-104l-35 130h-225l-35 -130h-104zM251 524l-85 -295h171c-18 63 -38 127 -86 295zM107 862c0 34 25 60 58 60c34 0 59 -26 59 -60c0 -35 -25 -62 -59 -62c-33 0 -58 27 -58 62zM276 862c0 34 24 60 58 60c33 0 58 -26 58 -60
c0 -35 -25 -62 -58 -62c-34 0 -58 27 -58 62z" />
    <glyph glyph-name="Ccedilla" unicode="&#xc7;" horiz-adv-x="567" 
d="M210 -127h50c0 -3 1 -16 12 -16s13 17 13 31c0 13 -2 30 -13 30s-12 -13 -12 -17h-50c0 17 0 30 24 96c-171 16 -194 170 -194 353c0 194 26 355 226 355c104 0 201 -50 201 -189v-45h-99v45c0 64 -39 90 -102 90c-112 0 -126 -101 -126 -256s14 -256 126 -256
c62 0 101 29 101 90v45h100v-45c0 -132 -85 -182 -181 -188l-10 -27c53 6 81 -29 81 -81c0 -58 -33 -89 -82 -89s-65 41 -65 74z" />
    <glyph glyph-name="Egrave" unicode="&#xc8;" horiz-adv-x="456" 
d="M40 0v700h329v-99h-228v-217h190v-99h-190v-186h235v-99h-336zM62 952h115l98 -180h-114z" />
    <glyph glyph-name="Eacute" unicode="&#xc9;" horiz-adv-x="456" 
d="M40 0v700h329v-99h-228v-217h190v-99h-190v-186h235v-99h-336zM244 772h-115l99 180h114z" />
    <glyph glyph-name="Ecircumflex" unicode="&#xca;" horiz-adv-x="456" 
d="M40 0v700h329v-99h-228v-217h190v-99h-190v-186h235v-99h-336zM177 772h-102l91 180h80l91 -180h-103l-29 54z" />
    <glyph glyph-name="Edieresis" unicode="&#xcb;" horiz-adv-x="456" 
d="M40 0v700h329v-99h-228v-217h190v-99h-190v-186h235v-99h-336zM69 862c0 34 25 60 58 60c34 0 59 -26 59 -60c0 -35 -25 -62 -59 -62c-33 0 -58 27 -58 62zM238 862c0 34 24 60 58 60c33 0 58 -26 58 -60c0 -35 -25 -62 -58 -62c-34 0 -58 27 -58 62z" />
    <glyph glyph-name="Igrave" unicode="&#xcc;" horiz-adv-x="231" 
d="M30 0v700h101v-700h-101zM-77 952h115l98 -180h-114z" />
    <glyph glyph-name="Iacute" unicode="&#xcd;" horiz-adv-x="231" 
d="M30 0v700h101v-700h-101zM140 772h-115l99 180h114z" />
    <glyph glyph-name="Icircumflex" unicode="&#xce;" horiz-adv-x="231" 
d="M30 0v700h101v-700h-101zM55 772h-102l91 180h80l91 -180h-103l-29 54z" />
    <glyph glyph-name="Idieresis" unicode="&#xcf;" horiz-adv-x="231" 
d="M30 0v700h101v-700h-101zM-61 862c0 34 25 60 58 60c34 0 59 -26 59 -60c0 -35 -25 -62 -59 -62c-33 0 -58 27 -58 62zM108 862c0 34 24 60 58 60c33 0 58 -26 58 -60c0 -35 -25 -62 -58 -62c-34 0 -58 27 -58 62z" />
    <glyph glyph-name="Ntilde" unicode="&#xd1;" horiz-adv-x="569" 
d="M40 0v700h95l234 -461v461h100v-700h-93l-235 460v-460h-101zM110 776v105c35 20 62 30 82 30c25 0 48 -10 72 -22c17 -11 34 -16 50 -16c14 0 40 12 82 35v-104c-35 -20 -61 -30 -80 -30c-24 0 -48 8 -73 21c-17 7 -35 15 -53 15c-14 0 -39 -10 -80 -34z" />
    <glyph glyph-name="Ograve" unicode="&#xd2;" horiz-adv-x="595" 
d="M141 350c0 -156 11 -256 125 -256c115 0 128 100 128 256c0 155 -13 256 -128 256c-114 0 -125 -101 -125 -256zM40 350c0 195 24 355 226 355s229 -160 229 -355s-27 -355 -229 -355s-226 160 -226 355zM108 952h115l98 -180h-114z" />
    <glyph glyph-name="Ocircumflex" unicode="&#xd4;" horiz-adv-x="595" 
d="M141 350c0 -156 11 -256 125 -256c115 0 128 100 128 256c0 155 -13 256 -128 256c-114 0 -125 -101 -125 -256zM40 350c0 195 24 355 226 355s229 -160 229 -355s-27 -355 -229 -355s-226 160 -226 355zM238 772h-102l91 180h80l91 -180h-103l-29 54z" />
    <glyph glyph-name="Oacute" unicode="&#xd3;" horiz-adv-x="595" 
d="M141 350c0 -156 11 -256 125 -256c115 0 128 100 128 256c0 155 -13 256 -128 256c-114 0 -125 -101 -125 -256zM40 350c0 195 24 355 226 355s229 -160 229 -355s-27 -355 -229 -355s-226 160 -226 355zM316 772h-115l99 180h114z" />
    <glyph glyph-name="Otilde" unicode="&#xd5;" horiz-adv-x="595" 
d="M141 350c0 -156 11 -256 125 -256c115 0 128 100 128 256c0 155 -13 256 -128 256c-114 0 -125 -101 -125 -256zM40 350c0 195 24 355 226 355s229 -160 229 -355s-27 -355 -229 -355s-226 160 -226 355zM127 776v105c35 20 62 30 82 30c25 0 48 -10 72 -22
c17 -11 34 -16 50 -16c14 0 40 12 82 35v-104c-35 -20 -61 -30 -80 -30c-24 0 -48 8 -73 21c-17 7 -35 15 -53 15c-14 0 -39 -10 -80 -34z" />
    <glyph glyph-name="Odieresis" unicode="&#xd6;" horiz-adv-x="595" 
d="M141 350c0 -156 11 -256 125 -256c115 0 128 100 128 256c0 155 -13 256 -128 256c-114 0 -125 -101 -125 -256zM40 350c0 195 24 355 226 355s229 -160 229 -355s-27 -355 -229 -355s-226 160 -226 355zM123 862c0 34 25 60 58 60c34 0 59 -26 59 -60
c0 -35 -25 -62 -59 -62c-33 0 -58 27 -58 62zM292 862c0 34 24 60 58 60c33 0 58 -26 58 -60c0 -35 -25 -62 -58 -62c-34 0 -58 27 -58 62z" />
    <glyph glyph-name="Oslash" unicode="&#xd8;" horiz-adv-x="595" 
d="M51 -46l46 113c-49 65 -57 168 -57 283c0 195 24 355 226 355c32 0 60 -4 84 -12l22 53h104l-44 -108c53 -65 63 -170 63 -288c0 -195 -27 -355 -229 -355c-34 0 -63 5 -88 13l-21 -54h-106zM394 350c0 63 -3 118 -13 160l-165 -408c14 -5 30 -8 50 -8
c115 0 128 100 128 256zM141 350c0 -59 1 -110 9 -151l162 400c-13 4 -28 7 -46 7c-114 0 -125 -101 -125 -256z" />
    <glyph glyph-name="Ugrave" unicode="&#xd9;" horiz-adv-x="554" 
d="M40 700h101v-496c0 -74 30 -110 107 -110c78 0 110 36 110 110v496h101v-496c0 -148 -83 -209 -211 -209s-208 61 -208 209v496zM110 952h115l98 -180h-114z" />
    <glyph glyph-name="Uacute" unicode="&#xda;" horiz-adv-x="554" 
d="M40 700h101v-496c0 -74 30 -110 107 -110c78 0 110 36 110 110v496h101v-496c0 -148 -83 -209 -211 -209s-208 61 -208 209v496zM309 772h-115l99 180h114z" />
    <glyph glyph-name="Ucircumflex" unicode="&#xdb;" horiz-adv-x="554" 
d="M40 700h101v-496c0 -74 30 -110 107 -110c78 0 110 36 110 110v496h101v-496c0 -148 -83 -209 -211 -209s-208 61 -208 209v496zM220 772h-102l91 180h80l91 -180h-103l-29 54z" />
    <glyph glyph-name="Udieresis" unicode="&#xdc;" horiz-adv-x="554" 
d="M40 700h101v-496c0 -74 30 -110 107 -110c78 0 110 36 110 110v496h101v-496c0 -148 -83 -209 -211 -209s-208 61 -208 209v496zM101 862c0 34 25 60 58 60c34 0 59 -26 59 -60c0 -35 -25 -62 -59 -62c-33 0 -58 27 -58 62zM270 862c0 34 24 60 58 60c33 0 58 -26 58 -60
c0 -35 -25 -62 -58 -62c-34 0 -58 27 -58 62z" />
    <glyph glyph-name="Yacute" unicode="&#xdd;" horiz-adv-x="512" 
d="M176 0v232l-186 468h105l132 -329c29 75 58 148 132 329h103l-185 -468v-232h-101zM284 772h-115l99 180h114z" />
    <glyph glyph-name="agrave" unicode="&#xe0;" horiz-adv-x="509" 
d="M405 86v271c0 169 -119 198 -186 198c-66 0 -124 -38 -168 -98l78 -54c22 39 62 59 90 59c29 0 92 -13 92 -105v-27c-22 9 -50 16 -82 16c-125 0 -189 -92 -189 -179c0 -78 39 -172 179 -172c41 0 73 14 95 28l1 -23h94c0 9 0 35 -4 86zM229 253c39 0 62 -7 82 -15v-112
c-21 -26 -56 -38 -92 -38c-66 0 -85 38 -85 79c0 46 37 86 95 86zM78 808h115l98 -180h-114z" />
    <glyph glyph-name="aacute" unicode="&#xe1;" horiz-adv-x="509" 
d="M405 86v271c0 169 -119 198 -186 198c-66 0 -124 -38 -168 -98l78 -54c22 39 62 59 90 59c29 0 92 -13 92 -105v-27c-22 9 -50 16 -82 16c-125 0 -189 -92 -189 -179c0 -78 39 -172 179 -172c41 0 73 14 95 28l1 -23h94c0 9 0 35 -4 86zM229 253c39 0 62 -7 82 -15v-112
c-21 -26 -56 -38 -92 -38c-66 0 -85 38 -85 79c0 46 37 86 95 86zM279 627h-115l99 180h114z" />
    <glyph glyph-name="acircumflex" unicode="&#xe2;" horiz-adv-x="509" 
d="M405 86v271c0 169 -119 198 -186 198c-66 0 -124 -38 -168 -98l78 -54c22 39 62 59 90 59c29 0 92 -13 92 -105v-27c-22 9 -50 16 -82 16c-125 0 -189 -92 -189 -179c0 -78 39 -172 179 -172c41 0 73 14 95 28l1 -23h94c0 9 0 35 -4 86zM229 253c39 0 62 -7 82 -15v-112
c-21 -26 -56 -38 -92 -38c-66 0 -85 38 -85 79c0 46 37 86 95 86zM201 624h-102l91 180h80l91 -180h-103l-29 54z" />
    <glyph glyph-name="atilde" unicode="&#xe3;" horiz-adv-x="509" 
d="M405 86v271c0 169 -119 198 -186 198c-66 0 -124 -38 -168 -98l78 -54c22 39 62 59 90 59c29 0 92 -13 92 -105v-27c-22 9 -50 16 -82 16c-125 0 -189 -92 -189 -179c0 -78 39 -172 179 -172c41 0 73 14 95 28l1 -23h94c0 9 0 35 -4 86zM229 253c39 0 62 -7 82 -15v-112
c-21 -26 -56 -38 -92 -38c-66 0 -85 38 -85 79c0 46 37 86 95 86zM84 632v105c35 20 62 30 82 30c25 0 48 -10 72 -22c17 -11 34 -16 50 -16c14 0 40 12 82 35v-104c-35 -20 -61 -30 -80 -30c-24 0 -48 8 -73 21c-17 7 -35 15 -53 15c-14 0 -39 -10 -80 -34z" />
    <glyph glyph-name="adieresis" unicode="&#xe4;" horiz-adv-x="509" 
d="M405 86v271c0 169 -119 198 -186 198c-66 0 -124 -38 -168 -98l78 -54c22 39 62 59 90 59c29 0 92 -13 92 -105v-27c-22 9 -50 16 -82 16c-125 0 -189 -92 -189 -179c0 -78 39 -172 179 -172c41 0 73 14 95 28l1 -23h94c0 9 0 35 -4 86zM229 253c39 0 62 -7 82 -15v-112
c-21 -26 -56 -38 -92 -38c-66 0 -85 38 -85 79c0 46 37 86 95 86zM76 714c0 34 25 60 58 60c34 0 59 -26 59 -60c0 -35 -25 -62 -59 -62c-33 0 -58 27 -58 62zM245 714c0 34 24 60 58 60c33 0 58 -26 58 -60c0 -35 -25 -62 -58 -62c-34 0 -58 27 -58 62z" />
    <glyph glyph-name="ccedilla" unicode="&#xe7;" horiz-adv-x="488" 
d="M181 -127h50c0 -3 1 -16 12 -16s13 17 13 31c0 13 -2 30 -13 30s-12 -13 -12 -17h-50c0 17 0 30 25 98c-123 20 -166 145 -166 276c0 143 52 280 204 280c113 0 174 -92 174 -211h-92c0 76 -27 118 -82 118c-81 0 -109 -67 -109 -187s28 -187 109 -187c55 0 81 47 81 118
h93c0 -131 -64 -205 -161 -210l-10 -27c53 6 81 -29 81 -81c0 -58 -33 -89 -82 -89s-65 41 -65 74z" />
    <glyph glyph-name="egrave" unicode="&#xe8;" horiz-adv-x="496" 
d="M318 206h94c0 -120 -64 -211 -190 -211c-159 0 -197 124 -197 280c0 161 49 280 197 280c149 0 194 -121 194 -243v-46h-297c3 -104 28 -178 103 -178c72 0 96 57 96 118zM222 462c-67 0 -97 -49 -102 -124h204c-5 75 -35 124 -102 124zM72 792h115l98 -180h-114z" />
    <glyph glyph-name="eacute" unicode="&#xe9;" horiz-adv-x="496" 
d="M318 206h94c0 -120 -64 -211 -190 -211c-159 0 -197 124 -197 280c0 161 49 280 197 280c149 0 194 -121 194 -243v-46h-297c3 -104 28 -178 103 -178c72 0 96 57 96 118zM222 462c-67 0 -97 -49 -102 -124h204c-5 75 -35 124 -102 124zM280 612h-115l99 180h114z" />
    <glyph glyph-name="ecircumflex" unicode="&#xea;" horiz-adv-x="496" 
d="M318 206h94c0 -120 -64 -211 -190 -211c-159 0 -197 124 -197 280c0 161 49 280 197 280c149 0 194 -121 194 -243v-46h-297c3 -104 28 -178 103 -178c72 0 96 57 96 118zM222 462c-67 0 -97 -49 -102 -124h204c-5 75 -35 124 -102 124zM194 612h-102l91 180h80l91 -180
h-103l-29 54z" />
    <glyph glyph-name="edieresis" unicode="&#xeb;" horiz-adv-x="496" 
d="M318 206h94c0 -120 -64 -211 -190 -211c-159 0 -197 124 -197 280c0 161 49 280 197 280c149 0 194 -121 194 -243v-46h-297c3 -104 28 -178 103 -178c72 0 96 57 96 118zM222 462c-67 0 -97 -49 -102 -124h204c-5 75 -35 124 -102 124zM81 702c0 34 25 60 58 60
c34 0 59 -26 59 -60c0 -35 -25 -62 -59 -62c-33 0 -58 27 -58 62zM250 702c0 34 24 60 58 60c33 0 58 -26 58 -60c0 -35 -25 -62 -58 -62c-34 0 -58 27 -58 62z" />
    <glyph glyph-name="igrave" unicode="&#xec;" horiz-adv-x="222" 
d="M38 0h95v550h-95v-550zM-74 792h115l98 -180h-114z" />
    <glyph glyph-name="iacute" unicode="&#xed;" horiz-adv-x="222" 
d="M38 0h95v550h-95v-550zM141 612h-115l99 180h114z" />
    <glyph glyph-name="icircumflex" unicode="&#xee;" horiz-adv-x="222" 
d="M38 0h95v550h-95v-550zM55 612h-102l91 180h80l91 -180h-103l-29 54z" />
    <glyph glyph-name="idieresis" unicode="&#xef;" horiz-adv-x="222" 
d="M38 0h95v550h-95v-550zM-57 702c0 34 25 60 58 60c34 0 59 -26 59 -60c0 -35 -25 -62 -59 -62c-33 0 -58 27 -58 62zM112 702c0 34 24 60 58 60c33 0 58 -26 58 -60c0 -35 -25 -62 -58 -62c-34 0 -58 27 -58 62z" />
    <glyph glyph-name="ntilde" unicode="&#xf1;" horiz-adv-x="528" 
d="M47 448v-448h94v303c0 125 47 159 109 159c78 0 94 -52 94 -159v-303h94v311c0 168 -45 244 -188 244c-52 0 -90 -17 -116 -43l-7 38h-87zM115 616v105c35 20 62 30 82 30c25 0 48 -10 72 -22c17 -11 34 -16 50 -16c14 0 40 12 82 35v-104c-35 -20 -61 -30 -80 -30
c-24 0 -48 8 -73 21c-17 7 -35 15 -53 15c-14 0 -39 -10 -80 -34z" />
    <glyph glyph-name="ograve" unicode="&#xf2;" horiz-adv-x="493" 
d="M316 275c0 48 5 187 -99 187c-106 0 -103 -139 -103 -187s-3 -187 103 -187c104 0 99 139 99 187zM412 275c0 -80 1 -280 -195 -280s-197 200 -197 280s1 280 197 280s195 -200 195 -280zM50 792h115l98 -180h-114z" />
    <glyph glyph-name="oacute" unicode="&#xf3;" horiz-adv-x="493" 
d="M316 275c0 48 5 187 -99 187c-106 0 -103 -139 -103 -187s-3 -187 103 -187c104 0 99 139 99 187zM412 275c0 -80 1 -280 -195 -280s-197 200 -197 280s1 280 197 280s195 -200 195 -280zM277 612h-115l99 180h114z" />
    <glyph glyph-name="ocircumflex" unicode="&#xf4;" horiz-adv-x="493" 
d="M316 275c0 48 5 187 -99 187c-106 0 -103 -139 -103 -187s-3 -187 103 -187c104 0 99 139 99 187zM412 275c0 -80 1 -280 -195 -280s-197 200 -197 280s1 280 197 280s195 -200 195 -280zM195 612h-102l91 180h80l91 -180h-103l-29 54z" />
    <glyph glyph-name="otilde" unicode="&#xf5;" horiz-adv-x="493" 
d="M316 275c0 48 5 187 -99 187c-106 0 -103 -139 -103 -187s-3 -187 103 -187c104 0 99 139 99 187zM412 275c0 -80 1 -280 -195 -280s-197 200 -197 280s1 280 197 280s195 -200 195 -280zM77 616v105c35 20 62 30 82 30c25 0 48 -10 72 -22c17 -11 34 -16 50 -16
c14 0 40 12 82 35v-104c-35 -20 -61 -30 -80 -30c-24 0 -48 8 -73 21c-17 7 -35 15 -53 15c-14 0 -39 -10 -80 -34z" />
    <glyph glyph-name="odieresis" unicode="&#xf6;" horiz-adv-x="493" 
d="M316 275c0 48 5 187 -99 187c-106 0 -103 -139 -103 -187s-3 -187 103 -187c104 0 99 139 99 187zM412 275c0 -80 1 -280 -195 -280s-197 200 -197 280s1 280 197 280s195 -200 195 -280zM74 702c0 34 25 60 58 60c34 0 59 -26 59 -60c0 -35 -25 -62 -59 -62
c-33 0 -58 27 -58 62zM243 702c0 34 24 60 58 60c33 0 58 -26 58 -60c0 -35 -25 -62 -58 -62c-34 0 -58 27 -58 62z" />
    <glyph glyph-name="oslash" unicode="&#xf8;" horiz-adv-x="493" 
d="M34 -46l40 100c-54 66 -54 169 -54 221c0 80 1 280 197 280c21 0 40 -2 57 -7l30 74h88l-46 -113c66 -64 66 -178 66 -234c0 -80 1 -280 -195 -280c-29 0 -53 4 -73 11l-21 -52h-89zM316 275c0 26 1 80 -15 123l-122 -303c11 -5 23 -7 38 -7c104 0 99 139 99 187z
M114 275c0 -22 -1 -63 9 -101l115 286c-6 1 -13 2 -21 2c-106 0 -103 -139 -103 -187z" />
    <glyph glyph-name="ugrave" unicode="&#xf9;" horiz-adv-x="518" 
d="M421 102v448h-94v-303c0 -125 -46 -159 -108 -159c-78 0 -95 52 -95 159v303h-94v-311c0 -168 45 -244 189 -244c51 0 89 17 116 43l7 -38h86zM82 792h115l98 -180h-114z" />
    <glyph glyph-name="uacute" unicode="&#xfa;" horiz-adv-x="518" 
d="M421 102v448h-94v-303c0 -125 -46 -159 -108 -159c-78 0 -95 52 -95 159v303h-94v-311c0 -168 45 -244 189 -244c51 0 89 17 116 43l7 -38h86zM271 612h-115l99 180h114z" />
    <glyph glyph-name="ucircumflex" unicode="&#xfb;" horiz-adv-x="518" 
d="M421 102v448h-94v-303c0 -125 -46 -159 -108 -159c-78 0 -95 52 -95 159v303h-94v-311c0 -168 45 -244 189 -244c51 0 89 17 116 43l7 -38h86zM189 612h-102l91 180h80l91 -180h-103l-29 54z" />
    <glyph glyph-name="ydieresis" unicode="&#xff;" horiz-adv-x="479" 
d="M218 -44l176 594h-99l-103 -354l-107 354h-95l157 -515c-4 -15 -14 -86 -40 -86c-16 0 -27 5 -44 21l-36 -67c11 -18 50 -53 84 -53c37 0 81 23 107 106zM49 702c0 34 25 60 58 60c34 0 59 -26 59 -60c0 -35 -25 -62 -59 -62c-33 0 -58 27 -58 62zM218 702
c0 34 24 60 58 60c33 0 58 -26 58 -60c0 -35 -25 -62 -58 -62c-34 0 -58 27 -58 62z" />
    <glyph glyph-name="yacute" unicode="&#xfd;" horiz-adv-x="479" 
d="M218 -44l176 594h-99l-103 -354l-107 354h-95l157 -515c-4 -15 -14 -86 -40 -86c-16 0 -27 5 -44 21l-36 -67c11 -18 50 -53 84 -53c37 0 81 23 107 106zM248 612h-115l99 180h114z" />
    <glyph glyph-name="udieresis" unicode="&#xfc;" horiz-adv-x="518" 
d="M421 102v448h-94v-303c0 -125 -46 -159 -108 -159c-78 0 -95 52 -95 159v303h-94v-311c0 -168 45 -244 189 -244c51 0 89 17 116 43l7 -38h86zM81 702c0 34 25 60 58 60c34 0 59 -26 59 -60c0 -35 -25 -62 -59 -62c-33 0 -58 27 -58 62zM250 702c0 34 24 60 58 60
c33 0 58 -26 58 -60c0 -35 -25 -62 -58 -62c-34 0 -58 27 -58 62z" />
    </font>
</defs>
</svg>
